<svg xmlns="http://www.w3.org/2000/svg" viewBox="0 0 51.17 64.67"><title>queen5</title><g id="Layer_2" data-name="Layer 2"><g id="Layer_1-2" data-name="Layer 1"><path d="M51.17,55.75v8.91H.42C.32,63.36.27,61.92.1,60.5c-.43-3.55.52-5.22,4.67-5.62,6.18-.6,11.88-2.86,14.45-9L14,42.18c2.1-.65,4.17-1.72,6.3-1.85a116.6,116.6,0,0,1,13.46,0c1.31.07,2.57,1.19,3.86,1.83-1.16.76-2.3,1.55-3.49,2.26a5.58,5.58,0,0,1-1.39.4C33.72,51,37.71,53.37,51.17,55.75Z"/><path d="M15.48,37.66,7,20.21l9.1-.88.06-1.4,4.94,3.29,4.56-3.52,4.86,3.55,4.75-3.35c2.79,2.19,5.59,5.07,9.56,1.61L36,37.66Z"/><path d="M39.91,17.62l-4.54-3.2-5,3.34-4.54-3.69-4.7,3.68-4.82-3.3L11.58,17.7c.21-5.21,2.56-8.09,5.89-10.65C19,5.86,20,4,21.45,2.63,22.69,1.5,24.21.09,25.67,0c1.23-.07,2.69,1.45,3.82,2.51,1.43,1.34,2.4,3.27,4,4.33A13.6,13.6,0,0,1,39.91,17.62Z"/></g></g></svg>