<svg xmlns="http://www.w3.org/2000/svg" viewBox="0 0 81.6 211.22"><title>king</title><g id="Layer_2" data-name="Layer 2"><g id="Layer_1-2" data-name="Layer 1"><path d="M35.22,44.8c-5.2-3.51-5.09-13.28,3.17-16.19V14.44h-10V10.27H38.47V0h4.35V10h10.1l.22,4.37h-10V28.68a9.31,9.31,0,0,1,2.66,16.45q8.88,9.11,17.82,18.29c2.67,2.74,5.3,5.53,8,8.26s2.65,5.39.1,8q-5,5.11-10.12,10a3.77,3.77,0,0,1-2.39.87q-18.53.08-37.06,0a4,4,0,0,1-2.45-1.11c-3.33-3.12-6.54-6.38-9.84-9.53-2.73-2.6-2.66-5.67,0-8.36q7.1-7.09,14-14.38C27.7,53.13,31.44,48.93,35.22,44.8Z"/><path d="M27.22,108.4h27c-4.5,23.4-.19,44.89,14,64.52h-55a80.69,80.69,0,0,0,14-30.59C29.56,131.1,29.19,119.82,27.22,108.4Z"/><path d="M81.54,211.22H0c0-1.36,0-2.64,0-3.92,0-4.77.1-9.55,0-14.32a6.61,6.61,0,0,1,6.09-6.52c1.07,0,2.13-.15,3.2-.15H53c6.74,0,13.49.14,20.22,0,5.33-.15,8.56,3.61,8.37,8.38C81.37,200.05,81.54,205.48,81.54,211.22Z"/><path d="M40.66,105.83c-6.66,0-13.33,0-20,0-3,0-3.3-.37-3.32-3.23,0-2.22.11-4.45,0-6.66s.88-2.89,2.93-2.86c4.77.07,9.54,0,14.32,0H60.23c3.61,0,3.67.08,3.67,3.77,0,2-.1,4,0,5.92.15,2.28-.84,3.08-3,3.06-6.75-.06-13.49,0-20.24,0Z"/><path d="M74.51,183.86H7.32A6.06,6.06,0,0,1,13,175.44c6.58.1,13.16.09,19.75.09,9,0,18.09,0,27.13,0,3.12,0,6.26,0,9.36.21C73,176,75,179.06,74.51,183.86Z"/></g></g></svg>