<svg xmlns="http://www.w3.org/2000/svg" viewBox="0 0 94.53 148.81"><title>knight</title><g id="Layer_2" data-name="Layer 2"><g id="Layer_1-2" data-name="Layer 1"><path d="M48.85,49C44,50.36,40,51.53,35.91,52.64a5.62,5.62,0,0,1-2.44.22c-8.56-1.67-16.14,2.1-24,4.36C4.7,58.62,4.67,59,2.6,54.69A46.4,46.4,0,0,1,0,47a2.25,2.25,0,0,1,.91-1.88c3.21-2,6.55-3.72,9.76-5.68a56.46,56.46,0,0,0,7.48-5.12A9.68,9.68,0,0,0,20.63,30c1.21-3.85,2.62-7.29,6.88-8.89C33.34,18.88,39,16.26,44.81,14c1.54-.6,1.51-1.25,1.39-2.71-.27-3.56-.09-7.16-.09-10.74L46.85,0c3,1.94,6.54,3.34,8.73,5.92,4.76,5.6,11,9.39,16,14.61A60.93,60.93,0,0,1,86.47,47.31c4.84,17.77,4.22,35.47.07,53.21-.63,2.71-1.46,5.38-2.16,8.08a2.43,2.43,0,0,1-2.75,2.12q-27.55-.1-55.1,0c-1.67,0-2.21-.49-2.44-2.16-.93-6.57.82-12.66,3.67-18.33C32.62,80.57,38,71.21,43,61.65,45.12,57.7,46.78,53.53,48.85,49Z"/><path d="M94.25,148.81H13a13.19,13.19,0,0,1-.22-1.67c0-5.27-.07-10.54,0-15.8a7.11,7.11,0,0,1,7-7.38c1.88-.13,3.78-.07,5.68-.07,20,0,40,.12,60-.07,5.59-.05,9.38,3,9.06,9-.27,5-.06,10-.08,15.06A6.93,6.93,0,0,1,94.25,148.81Z"/><path d="M20.1,121.35c-.71-5.54,1.55-8.29,6.76-8.29,18,0,36.07,0,54.11.12,5.05,0,7.09,2.89,6.07,8.17Z"/></g></g></svg>