<svg xmlns="http://www.w3.org/2000/svg" viewBox="0 0 81.88 143.28"><title>rook</title><g id="Layer_2" data-name="Layer 2"><g id="Layer_1-2" data-name="Layer 1"><path d="M68.38,105H13.33c6.72-9.55,11.59-19.57,14-30.8a81.78,81.78,0,0,0,0-33.72H54.43Q47.35,75.65,68.38,105Z"/><path d="M81.88,143.28H.06c0-6.28-.18-12.44.07-18.58.14-3.38,2.91-5.77,6.29-6.2a19.26,19.26,0,0,1,2.46-.11H72.61c6.56,0,9.26,2.72,9.26,9.27C81.88,132.82,81.88,138,81.88,143.28Z"/><path d="M10.49,0H23.18V17.7c3.57,0,6.83.07,10.09-.09.43,0,1.12-1.23,1.13-1.9.1-4.28,0-8.56,0-12.84,0-.89,0-1.78,0-2.85H47.32V17.51H58.5V.1H71.13V28.88H10.49Z"/><path d="M7.32,115.87c-.85-5.38,1.51-8.32,6.65-8.33q26.9,0,53.79,0c5.19,0,7.5,2.9,6.7,8.32Z"/><path d="M10.53,31.3H71c.63,4.06-1.35,6.57-5.31,6.58q-24.92.06-49.83,0C12.25,37.87,10.15,35.25,10.53,31.3Z"/></g></g></svg>