<svg xmlns="http://www.w3.org/2000/svg" viewBox="0 0 89.1 162.37"><title>5_bishop</title><g id="Layer_2" data-name="Layer 2"><g id="Layer_1-2" data-name="Layer 1"><path d="M27.21,51.26h9.15L33,47.7c-5.56-5.9-6.29-12.78-2.93-19.75,3.06-6.35,7-12.27,10.85-18.76-2-3.86-2-6.22.57-8.08a5,5,0,0,1,6.66.34c2.19,2.2,2,4.66-.24,8,3.38,5.34,7,10.36,9.83,15.81a31.93,31.93,0,0,1,3.06,11c.47,4.26-1.6,8-4.43,11.17-1,1.16-2.24,2.17-4,3.83h9.2l.27,6.11h5.26v8.62H54.76c.26,3.75.47,7.17.74,10.58,1,12.41,2,24.82,6,36.74,3.17,9.39,8.32,17.13,17.69,21.43a24.23,24.23,0,0,1,4.3,2.65c3.11,2.32,3.32,4.94.68,7.82-.75.82-1.65,1.5-2.7,2.45,2,1.33,4.08,2.47,5.88,3.91A4.6,4.6,0,0,1,89,154.35c.22,2.59.07,5.2.07,8H0c0-3.08-.07-6.12.06-9.15,0-.55.78-1.18,1.34-1.57,2-1.39,4-2.7,6.06-4.07a8.54,8.54,0,0,0-.69-.79c-5.41-4.67-5.43-7.85,1.12-10.9,12.65-5.89,18.26-16.52,21.45-29.15,3.25-12.87,4-26.05,4.83-39.22a10.63,10.63,0,0,0-.14-1.42H21.93V57.49l5.28-.29Z"/></g></g></svg>