<svg xmlns="http://www.w3.org/2000/svg" viewBox="0 0 82.4 126.45"><title>5_pown</title><g id="Layer_2" data-name="Layer 2"><g id="Layer_1-2" data-name="Layer 1"><path d="M51.6,34.84c2.94,2.63,5.83,5.42,8.94,7.94,2.6,2.11,3.23,4.63,2.38,8H51.55c.27,4.95.32,9.59.83,14.18,1,9,3.11,17.7,8.19,25.41a27.31,27.31,0,0,0,11.07,9.67,33.89,33.89,0,0,1,5.28,3.17c3.24,2.39,3.3,4.86.37,7.66C76.68,111.46,76,112,75,113c6.94,2.19,8.59,7,6.75,13.5H0c0-2.77-.09-5.64.07-8.49,0-.62.91-1.3,1.55-1.75C3.32,115,5.07,114,6.77,112.87c-.18-.34-.22-.53-.34-.64-5.21-4.29-5.15-7.13.76-10.33S18.86,95.61,22,89.5a80.87,80.87,0,0,0,5.8-14.21c2.26-7.75,2.84-15.79,2.55-24.36-2.6,0-5.08.08-7.55,0-1.3-.06-3.57-.24-3.7-.77-.48-2-.87-4.12,1.09-5.94,2.95-2.73,5.66-5.71,8.46-8.6.44-.46.83-1,1.23-1.44C20.75,23.81,20,13,27.8,5.49a18.77,18.77,0,0,1,26.34-.17C62.19,13.16,61.52,23.76,51.6,34.84Z"/></g></g></svg>