<?xml version="1.0" standalone="no"?>
<!DOCTYPE svg PUBLIC "-//W3C//DTD SVG 1.1//EN" "http://www.w3.org/Graphics/SVG/1.1/DTD/svg11.dtd" >
<svg xmlns="http://www.w3.org/2000/svg">
<metadata>Generated by IcoMoon</metadata>
<defs>
<font id="icomoon" horiz-adv-x="1024">
<font-face units-per-em="1024" ascent="960" descent="-64" />
<missing-glyph horiz-adv-x="1024" />
<glyph unicode="&#x20;" horiz-adv-x="512" d="" />
<glyph unicode="&#xe900;" glyph-name="bishop" horiz-adv-x="509" d="M170.417 578.657h168.791c-26.632-146.598-1.75-281.319 87.521-403.286h-344.209c89.209 121.967 115.778 256.125 87.896 403.286zM509.124-64h-509.124q0 41.51 0 82.833c0 10.253-0.313 20.568 0 30.82 0.307 22.932 18.968 41.404 41.944 41.404 0.441 0 0.88-0.007 1.318-0.020q205.174 0.314 410.411 0.564c15.941 0 32.57 0.75 43.323-14.253 4.876-6.814 11.378-14.691 11.628-22.255 1.125-39.072 0.5-78.769 0.5-119.092zM239.121 881.668c-20.755 12.503-28.444 30.445-22.881 51.325 3.501 13.316 19.942 25.694 35.884 27.007s36.196-10.753 41.135-24.568c7.064-19.942 0-36.759-19.942-52.95 36.634-37.884 72.705-76.769 110.464-113.903 33.946-33.383 38.072-68.767 15.004-100.024-7.189-11.358-19.686-18.789-33.918-18.789-0.581 0-1.16 0.012-1.735 0.037-69.872 1.185-139.827 0.497-209.782 0.497-32.508 0-55.764 22.568-57.764 55.701-1.625 26.819 13.691 44.948 31.258 62.515 37.072 37.259 74.206 74.768 112.277 113.153zM465.489 107.229h-419.853c-8.877 31.258 8.44 52.45 42.51 52.45h135.658c65.328 0 130.719-1.25 195.985 0.563 32.008 0.75 53.263-23.193 45.699-53.013zM253.749 594.848c-41.635 0-83.27 0-125.031 0-17.129 0-20.255 3.501-20.192 21.13s3.438 20.88 20.693 20.943q125.656 0 251.311 0c17.879 0 19.13-1.75 19.13-21.255s-1.25-20.693-19.63-20.755c-42.010-0.188-84.146-0.063-126.281-0.063z" />
<glyph unicode="&#xe901;" glyph-name="king" horiz-adv-x="396" d="M170.747 742.808c-25.21 17.017-24.676 64.382 15.368 78.49v68.697h-48.48v20.216h48.868v49.789h21.089v-48.48h48.965l1.067-21.186h-48.48v-69.375c18.522-5.905 31.702-22.958 31.702-43.090 0-15.044-7.36-28.368-18.675-36.57q42.919-44.256 86.261-88.761c12.944-13.284 25.695-26.81 38.784-40.045s12.847-26.131 0.485-38.784q-24.24-24.773-49.062-48.48c-3.119-2.605-7.165-4.195-11.582-4.218q-89.839-0.388-179.673 0c-4.647 0.395-8.768 2.374-11.883 5.386-16.139 15.121-31.701 30.925-47.699 46.197-13.235 12.605-12.896 27.488 0 40.529q34.421 34.373 67.872 69.715c18.616 19.586 36.748 39.948 55.074 59.97zM131.963 434.474h130.897c-21.816-113.444-0.921-217.628 67.872-312.795h-266.641c31.441 41.906 54.995 91.658 67.366 145.673 11.851 57.071 10.057 111.757 0.506 167.121zM395.308-64h-395.308c0 6.593 0 12.799 0 19.004 0 23.125 0.485 46.299 0 69.424 0.181 16.668 13.060 30.272 29.41 31.602 5.302 0.007 10.44 0.735 15.628 0.735h211.907c32.676 0 65.4-0.679 98.027 0 25.84 0.727 41.499-17.501 40.578-40.626-1.067-25.985-0.242-52.31-0.242-80.138zM197.121 446.933c-32.288 0-64.624 0-96.961 0-14.544 0-15.998 1.794-16.095 15.659 0 10.763 0.533 21.574 0 32.288s4.266 14.011 14.205 13.865c23.125-0.339 46.25 0 69.424 0h124.303c17.501 0 17.792-0.388 17.792-18.277 0-9.696-0.485-19.392 0-28.7 0.727-11.053-4.072-14.932-14.544-14.835-32.724 0.291-65.4 0-98.124 0zM361.226 68.642h-325.739c-1.467 3.378-2.321 7.312-2.321 11.445 0 16.226 13.153 29.379 29.379 29.379 0.168 0 0.336-0.001 0.504-0.004 31.875-0.484 63.775-0.436 95.723-0.436 43.632 0 87.701 0 131.527 0 15.126 0 30.349 0 45.378-1.018 18.229-1.26 27.925-16.095 25.549-39.366z" />
<glyph unicode="&#xe902;" glyph-name="knight" horiz-adv-x="650" d="M336.149 622.818c-33.374-9.359-60.899-17.41-89.043-25.048-3.521-1.166-7.574-1.839-11.784-1.839-1.765 0-3.502 0.118-5.205 0.347-58.705 11.47-110.865-14.473-164.951-30.024-32.824-9.634-33.030-12.249-47.274 17.41-6.739 14.834-12.868 32.465-17.426 50.718-0.47 2.346-0.473 2.519-0.473 2.692 0 5.082 2.448 9.591 6.229 12.414 22.13 13.792 45.113 25.627 67.202 39.115 19.567 11.283 36.388 22.929 52.18 35.791 7.244 7.456 13.175 17.488 16.249 28.701 8.436 26.96 18.138 50.632 47.452 61.642 40.118 15.345 79.066 33.374 119.046 48.926 10.597 4.129 10.391 8.602 9.565 18.648-1.858 24.497-0.619 49.27-0.619 73.905l5.092 3.785c20.644-13.35 45.003-22.983 60.073-40.737 32.755-38.535 75.694-64.615 110.1-100.535 47.81-50.070 83.42-112.201 101.8-181.353 33.967-125.207 29.701-247.006 1.143-369.079-4.335-18.648-10.047-37.021-14.864-55.601-1.020-8.348-8.065-14.75-16.605-14.75-0.818 0-1.622 0.059-2.408 0.172q-189.489 0.677-379.068-0.011c-11.492 0-15.208 3.372-16.79 14.864-6.4 45.21 5.643 87.117 25.254 126.133 33.443 66.473 70.464 130.882 104.87 196.666 14.588 27.181 26.011 55.876 40.255 87.048zM648.559-64h-559.102c-0.682 3.264-1.22 7.2-1.498 11.208-0.016 36.548-0.497 72.812-0.016 109.008-0.023 0.556-0.035 1.208-0.035 1.863 0 26.767 21.495 48.514 48.166 48.92 12.975 0.895 26.049 0.482 39.124 0.482 137.625 0 275.25-0.826 412.875 0.482 38.466 0.344 64.546-20.644 62.344-61.931-1.858-34.406-0.413-68.813-0.551-103.632-0.333-2.463-0.791-4.629-1.389-6.736zM138.313 124.959c-4.886 38.122 10.666 57.046 46.517 57.046 123.863 0 248.207 0 372.345-0.826 34.75 0 48.788-19.887 41.769-56.22z" />
<glyph unicode="&#xe903;" glyph-name="pown" horiz-adv-x="580" d="M0.499-64c0 43.308-1.425 85.974 0.499 128.214 1.353 29.703 22.224 47.439 52.283 48.151 32.196 0.712 64.107 0 96.588 0h369.113c18.306 0 37.253 0 48.935-17.38 6.034-7.748 10.177-17.251 11.577-27.623 1.244-43.606 0.603-86.914 0.603-131.789zM487.782 207.671h-393.331c100.149 138.257 132.060 290.546 99.722 459.147 65.674-36.968 128.214-37.681 192.321 0-30.344-166.322-1.425-319.395 101.289-459.147zM290.903 655.492c-83.125-0.926-150.722 67.098-152.646 150.865s71.372 151.72 148.229 153.643c84.692 2.066 153.073-69.235 156.706-144.739 3.49-88.183-69.378-161.549-152.289-159.769zM49.861 130.814c-3.633 38.25 13.534 59.406 46.798 59.477q192.321 0 384.641 0c17.665 0 34.974-1.994 42.738-20.158 3.978-10.976 7.51-24.19 9.956-37.781z" />
<glyph unicode="&#xe904;" glyph-name="queen" horiz-adv-x="462" d="M122.461 618.987c-31.125 50.535-65.135 98.014-114.652 134.402 19.637 17.826 43.914 25.126 68.644 29.031s50.931 3.509 74.642-12.223c12.62 35.595 25.692 68.531 51.554 94.11-28.861 29.484-31.691 58.797-6.961 81.603 18.562 16.977 48.951 22.014 74.642-4.697 18.788-19.58 14.148-51.837-8.545-73.001l50.931-95.015c49.573 22.183 96.203 9.564 142.607-18.958-36.614-23.598-61.231-56.59-86.809-88.847-7.157-8.75-13.578-18.608-18.876-29.127-6.589-13.712-14.455-18.239-29.282-17.899-64.739 1.019-129.535 0.34-194.331 0.34-1.263 0.006-2.497 0.108-3.702 0.301zM153.756 517.747h153.303c-26.541-132.987 0-253.92 79.226-364.894h-310.963c77.868 110.351 106.503 231.171 78.434 364.894zM459.852-64.283h-459.852c0 36.784-0.622 72.945 0.34 109.106 0.396 13.865 16.524 28.295 30.559 30.559 6.298 1.080 13.597 1.735 21.035 1.81q178.275 0.001 356.591 0.001c39.613 0 53.308-13.582 53.251-53.591q0-41.933-0.283-83.867c-0.377-1.522-0.94-2.861-1.678-4.083zM232.020 604.557c37.18 0 74.416-0.509 111.596 0 13.695 0.283 18.222-4.81 17.486-17.883-0.736-13.921 0-27.956 0-41.933 0-8.602-3.961-12.563-12.846-12.563q-117.312 0-234.623 0c-10.582 0-14.996 5.659-14.827 15.732 0 13.016 0.509 26.088 0 39.104s5.037 17.43 17.486 17.317c38.595 0 77.302 0.226 115.727 0.226zM420.635 91.34h-380.399c-3.792 31.973 9.111 47.14 39.613 47.14q150.304 0 300.607 0c30.785 0 43.235-14.261 40.179-47.14z" />
<glyph unicode="&#xe905;" glyph-name="rook" horiz-adv-x="585" d="M488.701 209.581h-393.434c48.027 68.252 82.832 139.864 100.056 220.123 7.983 36.22 12.556 77.824 12.556 120.496s-4.573 84.276-13.256 124.348l194.379-3.852q-50.6-251.355 99.698-461.114zM585.184-64h-584.755c0 44.882-1.286 88.907 0.5 132.788 1.001 24.156 20.797 41.237 44.954 44.31 4.479 0.517 9.668 0.812 14.927 0.812 0.933 0 1.865-0.009 2.794-0.028l455.329 0.002c46.883 0 66.18-19.439 66.18-66.251 0.071-36.878 0.071-73.898 0.071-111.634zM74.97 960h90.693v-126.499c25.514 0 48.813-0.5 72.112 0.643 3.073 0 8.004 8.791 8.076 13.579 0.715 30.588 0 61.177 0 91.765 0 6.361 0 12.721 0 20.369h92.337v-124.998h79.902v124.427h90.265v-205.686h-433.385zM52.315 131.895c-6.075 38.45 10.792 59.462 47.527 59.533q192.25 0 384.429 0c37.092 0 53.601-20.726 47.884-59.462zM75.256 736.304h432.17c4.503-29.016-9.648-46.955-37.95-47.026q-178.099-0.429-356.127 0c-25.8 0.071-40.808 18.796-38.093 47.026z" />
<glyph unicode="&#xe906;" glyph-name="bishop2" horiz-adv-x="611" d="M0 95.872l110.958 5.444 100.311 411.409-126.089 164.996 219.034 282.278 80.857-104.073-36.666-55.079 50.996-67.087 44.111 46.673 80.056-104.073-125.448-163.715 100.391-409.648 112.559-4.963v-161.954h-611.070z" />
<glyph unicode="&#xe907;" glyph-name="king2" horiz-adv-x="555" d="M459.415 87.031l96.011-4.361v-146.597h-555.427v144.053l91.796 5.96c4.652 12.574 9.376 23.549 12.865 34.959 26.165 88.089 52.112 176.396 79.44 264.267 2.579 7.446 4.069 16.027 4.069 24.957 0 13.794-3.555 26.757-9.798 38.024-30.685 61.158-60.484 123.155-90.21 184.134 77.26 86.563 276.623 96.084 377.94 1.672-17.007-35.396-34.669-72.172-52.403-109.021s-35.759-73.844-53.275-109.312zM240.428 954.912l75.515 5.088-8.867-60.034 57.345 3.997v-71.954l-59.162 5.16 13.519-91.796h-83.438l11.774 92.45-55.819-3.707v66.939l52.258-2.326z" />
<glyph unicode="&#xe908;" glyph-name="knight2" horiz-adv-x="712" d="M270.638 960l405.213-271.567-104.091-135.040c-104.277 65.057-146.936 68.868-213.759 13.755l307.535-306.698-139.408-122.586 3.067-9.294h182.625v-192.012h-711.818v185.878h178.535l6.413 14.313-139.408 122.307 79.463 84.296c-95.076 116.731-127.605 245.359-78.533 387.927 37.176 108.46 112.549 182.997 224.168 228.722z" />
<glyph unicode="&#xe909;" glyph-name="pown2" horiz-adv-x="836" d="M529.283 552.128l124.435-395.018h182.657v-221.111h-828.057c-13.718 72.695-7.237 142.69-3.457 219.706h182.008l124.219 395.99c-124.111 129.188-137.397 254.164-41.046 348.354 38.739 37.164 91.428 60.047 149.461 60.047 59.393 0 113.189-23.968 152.241-62.759 95.367-95.907 81.757-222.935-42.462-345.21z" />
<glyph unicode="&#xe90a;" glyph-name="queen2" horiz-adv-x="589" d="M21.93 859.824l67.472-16.811c-11.385-79.698 52.419-112.937 97.196-160.466v141.21l-35.99 43.173 36.296 93.070 61.13-75.037 7.030 3.821-18.186-58.685 53.489-124.858 10.545-0.764 54.788 125.622-15.894 52.877 66.555 75.342 36.143-90.931-37.136-44.090v-135.020l6.419-4.203c20.784 22.924 39.505 48.369 62.811 68.771 28.578 24.605 20.861 57.997 26.209 91.695l73.203 19.714c-8.558-20.478-13.296-33.010-18.874-45.16-44.548-97.196-90.166-193.934-133.186-291.742-4.724-11.537-7.466-24.926-7.466-38.956 0-6.732 0.631-13.316 1.838-19.697 19.688-108.232 41.694-216.737 63.090-325.395 2.904-14.824 6.648-29.572 10.621-47.070l99.336-4.738v-155.422h-583.407c-9.628 51.96-5.502 101.399-2.369 153.359l99.794 4.814c9.857 48.293 19.714 95.21 29.037 142.203 14.824 74.884 27.89 150.15 44.395 224.652 1.783 7.543 2.806 16.203 2.806 25.102 0 18.988-4.654 36.889-12.885 52.624-43.944 93.819-87.117 188.799-130.519 283.627-4.508 9.934-7.87 20.402-14.289 37.366z" />
<glyph unicode="&#xe90b;" glyph-name="rook2" horiz-adv-x="729" d="M168.077 583.769l-104.977 68.311v302.614h96.64l8.527-76.554h98.25l13.264 80.154h169.972l11.18-80.059h95.313l10.422 81.765h102.229v-304.415l-107.819-70.774 44.909-445.3 122.694-7.295v-194.511c-241.978-3.79-483.198-1.232-728.681 1.8v189.489l122.126 8.622z" />
<glyph unicode="&#xe90c;" horiz-adv-x="456" d="M447.135-3.234h-438.528c2.818 32.022 15.883 56.052 42.321 73.267 37.505 24.44 39.247 30.742 25.618 72.96-1.025 3.074-1.947 6.251-3.33 10.657h309.618c-1.64-5.482-2.818-9.889-4.253-14.244-12.297-38.427-8.249-47.701 26.899-68.605 27.053-16.088 39.144-41.347 41.655-74.036z" />
<glyph unicode="&#xe90d;" horiz-adv-x="456" d="M245.471 879.713c35.865-17.164 25.618-40.989 13.578-66.146-13.116-27.36-24.44-55.642-36.839-83.412-5.124-11.169-6.558-21.98 6.866-27.104s17.574 5.79 21.673 15.371l44.729 104.47c68.297-73.267 77.725-135.878 32.432-211.604-10.964-18.445-21.519-28.795-45.395-27.155-40.374 2.716-81.106 0.564-121.685 0.973-5.533 0-13.68 0.922-16.242 4.509-31.356 44.575-57.948 90.944-37.453 148.584 15.986 44.678 45.497 80.901 75.983 116.305 7.839 9.12 16.498 17.574 24.747 26.284-24.44 27.053-26.848 51.338-7.275 68.963 7.363 6.318 17.009 10.165 27.552 10.165 11.506 0 21.943-4.581 29.585-12.019 17.154-17.462 13.465-43.541-12.255-68.186zM162.418 619.896c14.602 9.889 6.251 17.779 0 25.362-22.595 26.438-25.618 55.745-11.682 86.691 7.48 16.498 17.881 31.613 25.618 47.906 2.767 5.636 2.306 12.86 3.33 19.367-6.2-3.33-14.858-5.124-18.24-10.247-8.937-13.988-18.334-30.769-26.829-48.073-20.923-42.204-21.077-70.999 27.802-121.005z" />
<glyph unicode="&#xe90e;" horiz-adv-x="456" d="M368.898 233.629h-280.516c35.865 75.829 42.423 155.501 46.83 237.478h187.575c5.79-80.492 7.019-161.342 46.112-237.478z" />
<glyph unicode="&#xe90f;" horiz-adv-x="456" d="M0-64v41.911h455.999v-41.911z" />
<glyph unicode="&#xe910;" horiz-adv-x="456" d="M421.671 214.467v-42.782h-385.806c-0.736 1.696-1.356 3.687-1.762 5.754-2.695 36.925-2.644 36.976 34.4 37.027h353.169z" />
<glyph unicode="&#xe911;" horiz-adv-x="456" d="M87.101 487.503v26.745h280.619v-26.591z" />
<glyph unicode="&#xe912;" horiz-adv-x="456" d="M333.033 562.615v-26.182h-210.067v26.182z" />
<glyph unicode="&#xe913;" horiz-adv-x="456" d="M162.418 619.896c-48.879 50.006-48.777 78.545-29.204 117.842 9.896 20.466 19.294 37.247 29.534 53.442 2.028 2.917 10.686 4.762 16.937 8.041-1.025-6.507-0.564-13.731-3.33-19.367-7.993-16.293-18.394-31.408-25.618-47.906-14.039-30.742-10.913-60.253 11.682-86.691 6.251-7.583 14.653-15.473 0-25.362z" />
<glyph unicode="&#xe914;" glyph-name="king3" horiz-adv-x="388" d="M312.847 185.549h-235.709c34.007 90.289 32.55 184.603 36.767 279.531h159.721c7.476-93.317 4.256-188.859 39.221-279.531zM60.653 116.999h267.070c-2.032-5.367-3.834-9.815-5.444-14.339-10.083-27.873-4.946-41.866 21.432-55.937 23.425-12.499 35.234-32.090 37.879-59.004h-373.001c2.99 24.959 13.265 44.512 34.505 57.969 33.47 21.278 34.965 26.186 20.703 62.454-0.92 2.262-1.649 4.562-3.144 8.856zM194.418 760.636c23.272 0 46.544 0.345 69.816 0 21.853-0.422 33.087-7.668 38.339-23.349 1.227-2.746 1.941-5.95 1.941-9.321 0-6.395-2.571-12.19-6.736-16.407-21.314-25.301-27.142-57.046-30.669-88.944-2.99-28.064-1.38-23.003-25.381-23.31-34.505-0.23-68.742 0.383-103.056-0.307-12-0.23-15.796 3.182-17.559 15.642-4.825 30.195-10.404 55.637-17.248 80.556-1.355 2.358-5.141 8.901-9.963 14.528-15.614 20.853-7.601 44.853 18.585 48.956 19.17 3.029 39.298 1.61 58.966 2.070 7.783 0.153 15.374-0.115 22.965-0.115zM152.858 629.977c-2.185 35.502-10.39 64.371-27.528 90.174-2.224 3.374-7.668 4.677-11.502 6.939-0.304-1.964-0.477-4.23-0.477-6.537s0.173-4.572 0.508-6.786q12.238-40.774 25.503-81.452c1.419-4.332 5.521-7.668 8.396-11.502zM0.383-64c0 10.773-1.15 20.933 0.652 30.671 0.613 3.22 8.741 6.978 13.495 7.093 29.79 0.613 59.617 0.268 89.445 0.268h284.17v-37.956zM360.388 168.143v-36.767h-330.368v36.767zM184.028 872.357c-19.668-4.217-35.080-6.403-49.841-11.003-11.118-3.527-14.991 0.652-16.716 10.198-0.079 0.907-0.124 1.963-0.124 3.029s0.045 2.122 0.133 3.165c-0.469 30.535-0.508 30.535 29.128 23.442 4.779-1.202 10.844-2.331 17.012-3.13 5.799-0.742 10.822-0.742 19.602-1.24-3.451 16.141-5.943 30.671-9.815 44.857-3.105 11.502 0 17.214 11.502 18.173 2.952 0.153 5.981 0.153 9.010 0.153 25.534 0 26.837-1.649 19.63-25.227-1.219-3.966-2.379-8.944-3.233-14.025-1.291-7.599-2.096-14.538-3.591-25.35 16.294 3.182 31.016 5.214 45.24 9.048s18.173 1.419 18.633-13.227c0-0.997 0-2.032 0-3.029 0.23-29.943 0.307-29.713-28.256-22.582-7.735 1.752-17.417 3.319-27.259 4.35-3.93-0.027-6.554-0.453-9.066-1.15 3.545-14.779 6.037-29.041 10.063-42.881 4.256-14.646 1.572-19.438-13.802-19.898-4.524 0-9.086 0-13.649 0-16.447 0.345-19.17 5.061-14.607 20.281 3.872 13.304 5.943 27.259 10.007 46.045zM314.688 501.924v-24.115h-239.083v24.115zM297.78 524.391c3.374-11.502-6.288-6.518-9.7-6.556-38.876-0.422-77.752-0.307-116.666-0.307h-79.86v27.336h30.671c46.467 0 92.934 0 139.401 0 6.633-0.383 12.744-1.107 18.737-2.171zM112.142 559.126v24.575h165.088v-24.575zM157.497 774.055v23.694h74.953v-23.694zM297.78 524.391l-18.211 18.326 21.317 3.144z" />
<glyph unicode="&#xe915;" glyph-name="knight3" horiz-adv-x="545" d="M267.114 894.816c0 32.623 1.226 33.849 29.618 28.514 127.119-23.854 214.624-120.925 231.61-253.011 9.505-74.689-2.759-146.619-20.481-218.303-13.184-53.288-27.043-106.453-41.208-161.888h-42.189c10.118 47.953 18.396 94.496 29.986 140.057 18.826 73.095 35.873 145.944 25.816 222.289-9.873 75.364-44.029 135.826-107.434 178.751-5.274 3.557-13.736 2.33-20.665 3.373 3.127-5.58 4.783-13.123 9.505-16.495 90.326-65.491 114.18-157.104 99.463-261.412-7.42-52.552-22.505-104.246-33.972-156.062-7.972-36.118-15.821-72.298-24.16-110.378h-339.841c-2.759 72.298 23.915 131.35 72.42 181.817 23.486 24.528 48.505 47.708 70.213 73.585 42.066 50.283 66.717 106.637 50.161 174.274-0.991 2.342-2.205 4.363-3.658 6.184-16.21-54.321-28.658-66.095-88.139-67.996-0.084 0-0.184 0.001-0.283 0.001-24.004 0-45.288-11.649-58.505-29.602-18.537-22.705-39.938-23.319-59.99-4.984-10.364 9.283-16.856 22.706-16.856 37.646 0 11.211 3.656 21.569 9.84 29.945 37.922 48.122 72.936 98.834 114.941 143.537 22.014 23.547 27.656 44.090 21.217 73.217-3.189 14.288-0.552 29.863-0.552 52.123zM41.146 671.791l5.764-5.028c25.448 8.769 93.637 94.557 87.996 116.081zM83.887 191.341h377.431c-30.661-51.080-15.576-84.868 34.401-111.052 24.528-12.877 33.788-41.698 37.161-71.5h-523.866c5.703 34.708 19.439 61.996 49.057 80.882 49.057 31.642 49.67 33.849 29.986 87.321-1.533 3.741-2.208 7.665-4.17 14.349zM0-64.061v51.142h544.899v-51.142zM39.797 212.558v47.953h462.238v-47.953z" />
<glyph unicode="&#xe916;" glyph-name="pown3" horiz-adv-x="468" d="M68.098 233h328.819c-2.156-8.475-3.494-15.612-5.724-22.303-11.821-35.61 2.379-63.117 27.061-87.13 28.473-27.656 39.699-61.11 37.766-101.701h-443.381c-4.758 38.807 10.259 71.146 34.049 96.646 31.447 33.826 44.829 68.321 21.411 114.488zM232.917 692.365c-6.627 0.492-14.355 0.772-22.149 0.772-9.79 0-19.477-0.442-29.041-1.308-31.628-5.188-48.132 11.911-63.298 37.708-58.285 99.248-6.914 214.033 93.449 228.828 6.531 1.067 14.059 1.676 21.729 1.676 78.257 0 141.698-63.44 141.698-141.698 0-13.076-1.771-25.739-5.087-37.761-0.509-1.83-1.401-4.655-2.294-7.48-21.931-70.998-35.387-80.736-108.541-80.736zM119.543 818.748c2.245-15.53 5.462-29.284 9.726-42.57 1.872-4.489 11.313-8.058 17.632-13.039 2.23 7.434 7.434 15.315 6.17 21.708-7.434 31.075-10.036 60.292 19.478 82.372 7.869 4.53 14.67 9.626 20.789 15.434 3.666 6.387 6.548 13.85 8.194 21.767-8.241 1.755-19.244 7.033-24.894 3.539-31.761-18.687-53.582-51.33-57.062-89.28zM133.817 579.513h200.726c4.684-81.777 6.914-163.555 54.419-237.897h-309.341c45.944 73.079 49.438 155.079 54.196 237.897zM468.361-5.12v-58.88h-468.361v58.88zM436.914 308.533v-50.033h-401.972v50.033zM389.706 600.552h-307.483c1.859 37.171 27.061 62.448 62.671 62.671 55.832 0 111.514 0 167.569 0 44.383 0 63.563-15.463 77.242-62.671z" />
<glyph unicode="&#xe917;" glyph-name="queen3" horiz-adv-x="462" d="M373.448 232.931h-283.546c29.83 59.797 34.17 124.071 39.834 188.026 3.243 36.545 3.198 73.456 5.71 110.138 0.32 5.025 6.761 13.704 10.507 13.704 59.615 0.868 119.275 0.594 181.31 0.594 3.426-106.164 5.665-211.232 46.184-312.463zM9.639-2.604c2.065 29.453 18.346 54.702 41.961 69.126 36.155 23.060 39.992 34.755 24.552 74.635-1.051 2.741-1.919 5.573-3.289 9.776h317.168c-3.061-9.136-6.578-17.953-9.136-27.135-6.578-25.262-0.502-40.474 22.612-52.443 30.47-15.577 48.742-38.692 51.483-73.959zM341.014 850.592c25.034-10.461 27.135-17.633 11.466-36.545-22.201-27.135-31.52-59.386-34.307-93.328-1.051-12.882-4.568-17.633-18.273-17.405-48.194 0.777-96.388 0.365-144.537 0.457-2.43 0.228-4.625 0.599-6.762 1.116-3.425 18.207-4.932 37.85-11.602 55.392-9.506 23.073-19.995 42.783-32.138 61.31-6.691 10.821-3.722 18.816 16.652 28.317 26.45-24.303 34.992-23.8 61.899 0 3.746 3.289 16.582 2.284 20.374-1.553 21.059-21.379 34.033-22.338 55.869 0 7.903 8.040 14.618 9.136 22.43 1.233 22.932-23.983 36.043-23.892 58.929 1.005zM190.264 735.246c-13.339 28.231-22.247 47.692-31.977 66.741-1.188 2.375-6.944 2.375-10.552 3.517-0.64-4.248-2.787-9.136-1.599-12.7q8.68-26.313 19.141-52.031c1.847-4.304 5.36-7.594 9.707-9.102 4.82-0.948 10.21 2.158 15.281 3.574zM0-64v43.9h462.39v-43.9zM429.408 212.785v-43.991h-392.862v43.991zM374.59 561.565h-286.47v27.089h286.47zM108.768 639.498h247.549v-30.104h-247.549zM248.691 888.463c19.872-4.568 39.789-6.076 52.534-22.019l-2.147-4.568c-5.482 2.193-10.872 6.35-16.537 6.761-14.527 0.914-29.465 4.568-38.738-14.116-5.527-11.055-17.268-9.502-25.49 0.32-16.948 20.237-36.134 20.328-52.214 0.822-4.278-4.213-10.069-6.899-16.486-7.17 10.958 29.509 38.23 32.798 63.081 40.061-5.253 10.37-14.709 21.059-14.984 31.977 0.646 12.639 5.968 23.922 14.255 32.253 12.606 12.423 35.904 7.809 48.74-6.489s9.091-30.104-12.014-57.833zM133.665 658.501v27.866h195.563v-27.866z" />
<glyph unicode="&#xe918;" glyph-name="rook3" horiz-adv-x="576" d="M481.731 342.63h-392.638c41.834 101.372 40.12 208.384 48.973 315.324h296.692c7.853-105.227 9.138-211.025 46.974-315.324zM83.81 233.405h399.777c-3.784-13.064-7.139-25.129-10.708-37.265-10.351-37.336-4.497-53.113 29.412-72.031 40.12-22.345 64.25-53.399 62.108-103.085-9.852-0.571-18.133-1.428-26.414-1.428q-242.722 0-485.443 0c-41.191 0-49.972 10.78-34.124 48.045 9.098 19.813 22.612 36.233 39.349 48.518 48.245 34.507 51.386 39.504 32.611 94.902-2.927 6.925-4.712 14.135-6.568 22.345zM46.117 957.216c90.164 6.996 89.521 6.925 104.37-75.743 3.641-20.489-0.5-46.902 35.052-46.617 46.902 0 51.543 3.926 47.616 51.4-1.642 19.703-2.499 39.407-3.569 59.181 0.089 4.023 0.398 7.876 0.916 11.663l106.025-0.527c0-30.483 1.142-60.395-0.357-90.093-1.142-21.988 7.139-30.483 28.555-31.054 45.046-1.142 45.617-1.499 54.47 43.404 5.069 25.771 9.852 51.614 14.992 78.528h89.664c-10.28-59.752-18.918-118.22-31.268-175.83-4.783-22.702-19.561-37.836-48.33-37.408-107.083 1.499-214.595 1.214-321.892 0-25.414 0-39.978 11.065-44.404 33.838-11.351 59.11-20.846 118.434-31.839 179.257zM92.805 927.161l-8.567-0.642c-2.499-7.139-7.924-15.349-7.139-22.273 4.846-36.382 11.391-68.272 19.916-99.343 2.5-7.812 15.422-18.877 25.987-28.872 3.070-2.927 12.636 1.071 19.275 1.856-1.26 6.49-2.889 12.139-4.953 17.573-5.826 12.339-15.035 24.404-18.533 38.039-6.068 23.558-8.138 48.116-13.421 71.96-3.304 8.303-7.535 15.47-12.689 21.862zM575.964-2.606v-61.394h-571.752c-1.326 3.051-2.415 6.619-3.095 10.331-3.116 51.064-3.116 51.064 48.069 51.064h526.777zM518.853 313.718c1.999-2.356 3.070-2.998 3.141-3.784 6.282-53.327 5.568-54.113-47.117-54.184h-424.906v57.968zM88.665 679.585v39.264h389.069v-39.264z" />
<glyph unicode="&#xe919;" glyph-name="bishop4" horiz-adv-x="562" d="M335.175 637.039h53.766v-37.992h34.187v-54.257h-77.027c0-7.12-0.307-12.275 0-17.247 6.138-84.76 10.557-169.766 32.836-252.317 12.275-45.296 28.417-89.241 62.972-122.752 13.76-12.226 28.845-23.78 44.74-34.199 7.614-5.327 14.979-8.212 21.546-12.079 44.129-25.717 45.725-42.35 5.34-76.352 13.222-7.648 24.508-15.314 35.21-23.694 5.632-5.232 10.038-12.926 11.585-21.61 0.697-8.797 1.074-18.774 1.074-28.839 0-6.887-0.177-13.732-0.525-20.532l-182.125 0.953c0 6.138 0 12.275 0 17.86 0 13.012 0.491 26.023 0 38.974-1.473 30.197-9.084 37.317-38.728 37.317-20.622 0-41.306-0.614-61.929 0-10.373 0.368-15.712-3.744-17.247-13.257-2.516-15.528-5.156-31.118-6.629-46.769-1.043-10.986 0-22.095 0-34.248h-254.22c0 19.395-0.43 38.544 0.368 57.694 0 3.498 4.787 7.611 8.286 10.066 12.275 8.47 24.55 16.326 38.79 25.839-5.647 4.971-10.434 8.838-14.853 13.073-18.965 18.106-18.413 36.028 2.332 51.679 7.433 5.808 15.833 11.044 24.764 15.352 53.49 24.42 85.283 66.708 106.397 118.817s31.056 107.592 37.501 163.322c5.094 45.234 7.979 90.653 11.661 135.948 0.368 4.542 0 9.145 0 16.019h-77.395v54.072l33.327 1.657 2.087 36.826h56.896c-9.206 9.391-15.344 15.896-21.482 22.464-34.984 36.826-40.386 80.28-19.027 124.409 19.456 40.57 44.62 78.561 68.741 119.868-13.135 23.2-13.319 37.93 1.903 49.96 5.595 4.343 12.716 6.963 20.45 6.963 8.448 0 16.167-3.126 22.061-8.285 14.446-13.531 13.894-28.568-2.064-52.382 15.16-21.359 32.1-41.859 45.296-64.568 11.987-20.033 22.945-43.25 31.605-67.559 14.305-41.937 3.871-77.228-23.687-107.118-6.567-6.997-13.871-13.135-20.684-19.272zM252.317 75.078h124.225c-55.239 143.866-49.837 293.746-56.405 441.356h-25.532c0-6.138-0.614-10.557-0.737-15.221-1.534-76.659-1.841-153.44-5.033-230.038-2.455-57.694-6.506-115.571-30.258-169.766-2.613-7.475-4.798-16.356-6.16-25.506zM333.395 754.881c-2.578 31.854-11.109 55.607-29.031 74.572-5.585 6.138-17.738 11.907-23.568 9.575s-10.741-15.037-10.741-23.139c0-0.013 0-0.028 0-0.043 0-26.756 10.523-51.054 27.655-68.982 6.102-6.1 17.702-13.035 23.226-10.826 6.874 3.007 10.004 14.792 12.459 18.842zM273.001 545.404h62.297v50.942l-15.774 4.358-3.314 15.59h-28.233c4.603-13.994-3.376-18.413-14.976-19.518z" />
<glyph unicode="&#xe91a;" glyph-name="king4" horiz-adv-x="449" d="M283.114 882.265h-38.867v-33.322c14.379 0 27.973-0.491 41.517 0 0.325 0.014 0.707 0.022 1.091 0.022 8.298 0 15.736-3.685 20.767-9.507 19.267-18.193 23.782-36.498 12.985-62.262-13.79-32.88-22.525-67.822-33.862-103.058l23.998-1.718v-43.775l27.826-1.423v-56.829h-54.768c0-17.961 0-34.353 0-50.695 0-86.47 3.681-172.793 17.618-258.184 7.754-47.406 19.63-94.077 44.56-136.281 11.197-20.021 27.671-35.927 47.554-46.128 10.809-5.364 19.506-10.732 27.667-16.783 15.421-11.291 16.304-24.689 2.76-38.921-3.877-4.073-8.343-7.558-13.397-12.122 7.206-5.508 15.352-10.897 23.854-15.73 12.216-5.912 15.357-13.813 14.326-25.444-0.932-10.698 0-21.544 0-33.42h-144.919c0 3.484-0.687 7.558-0.736 11.631 0 10.846 0.393 21.74 0 32.586-1.374 24.538-7.901 30.672-31.997 30.672-15.606 0-31.212-0.638-46.719 0-9.815 0.491-15.311-3.19-16.686-12.612-1.718-12.023-3.337-24.096-4.27-36.217-0.687-8.784 0-17.618 0-26.893h-203.416c0 15.704-0.442 31.114 0.344 46.474 0 3.141 4.368 6.674 7.508 8.883 9.57 6.772 19.63 12.956 29.445 19.336-1.031 1.619-1.325 2.699-2.012 3.19-31.653 23.065-25.077 43.333 4.908 56.78 61.785 27.826 81.268 83.428 95.844 142.072 25.274 101.585 28.218 205.379 28.267 309.173 0 12.269-0.638 24.538-0.245 36.806 0.245 8.49-2.65 11.876-11.434 11.533-13.594-0.54-27.237 0-41.959 0v57.467h26.059v44.904l25.225 1.521c-12.858 40.045-24.538 79.649-38.475 118.614-4.908 14.085-1.227 22.673 6.821 34.353 12.858 18.305 28.12 25.715 49.909 22.427 3.591-0.284 7.776-0.445 11.999-0.445s8.407 0.162 12.549 0.479l-0.55 32.945h-39.211l1.865 36.266 37.297 1.767c0.825 6.643 1.296 14.332 1.296 22.131 0 0.967-0.007 1.932-0.022 2.896-0.833 11.387 4.517 14.92 14.724 14.577 6.92-0.344 13.888 0 20.857 0l2.748-39.26c5.782-0.777 12.465-1.22 19.252-1.22 1.859 0 3.709 0.033 5.552 0.099 10.922 1.219 13.916-4.915 14.456-13.749 0.344-6.969 0.098-13.986 0.098-23.605zM297.297 47.695c-42.106 164.941-29.052 333.22-37.591 500.075-20.023 3.19-19.974 3.043-20.366-16.146-2.257-111.793-3.877-223.635-7.312-335.379-1.374-45.002-4.908-90.2-22.231-132.846-1.446-4.537-2.633-9.935-3.338-15.483zM266.379 673.745c2.11 27.433 4.171 53.639 6.036 79.845 1.227 17.373 2.601 34.745 3.19 52.118 0.442 12.514-9.324 28.12-16.931 28.856-16.097 1.57-23.114-3.73-28.022-21.789-0.549-2.312-0.864-4.966-0.864-7.693 0-1.231 0.064-2.448 0.189-3.646q3.423-49.809 7.152-99.767c0.687-9.226 1.57-18.403 2.405-27.924zM240.468 651.514l-1.767-22.329c-5.398-1.816-10.649-4.908-10.846-8.146-0.883-16.244-0.393-32.586-0.393-49.37h50.253v54.621l-13.25 3.19-1.178 21.887z" />
<glyph unicode="&#xe91b;" glyph-name="knight4" horiz-adv-x="606" d="M445.946 161.325v-26.501c31.934-6.625 62.94-13.251 93.88-19.478 4.046-0.496 7.703-1.812 10.918-3.778 11.475-8.81 30.622-17.224 31.881-27.692 1.524-12.19-12.588-26.501-20.207-39.752-1.458-2.518-4.571-4.108-8.282-7.288 10.282-7.876 21.887-15.528 34.021-22.351 15.536-7.396 18.518-17.334 17.59-31.379-0.994-15.172 0-30.476 0-47.039h-197.896c0 10.269 0 19.876 0 30.145s0.464 20.406 0 30.609c-1.259 32.596-9.607 40.613-41.342 40.547h-82.882c-3.511-17.292-8.083-33.789-9.805-50.484s-0.331-33.126-0.331-50.882h-273.491c0 20.936-0.464 42.269 0.464 63.536 0 3.644 5.83 7.752 9.739 10.468 13.251 8.878 26.501 17.226 41.673 27.031-6.161 4.903-11.528 8.745-16.497 13.251-23.851 21.267-21.532 47.437 8.348 57.772 31.536 10.865 65.193 15.768 97.988 23.122 4.687 0.789 10.322 1.381 16.043 1.645l0.321 27.705c-2.385 0.729-5.234 1.855-8.215 2.451-84.008 17.226-104.215 90.965-78.576 157.549 18.749 48.762 56.778 83.942 91.826 120.911 27.164 28.621 55.122 56.712 80.364 86.99 13.039 17.182 24.188 36.856 32.538 57.943-53.275 0.889-103.892-3.881-136.621-53.041-13.251-19.876-23.586-22.195-44.853-10.998-31.735 16.696-49.226 39.023-47.569 78.708 3.114 73.209-2.783 60.224 48.629 102.161 26.301 21.299 49.868 42.662 72.204 65.246 40.968 41.254 87.317 76.927 137.97 105.94 15.35 8.69 23.035 16.773 24.824 30.421 0.543 2.171 1.133 3.982 1.83 5.739 13.541 49.45 22.949 55.28 75.421 45.408 77.118-14.509 118.658-66.915 143.967-135.884 15.706-40.286 24.808-86.923 24.808-135.686 0-18.507-1.311-36.707-3.845-54.514-4.598-31.084-22.751-62.223-33.683-94.62-13.781-40.878-30.675-81.358-38.427-123.495-2.080-9.295-3.272-19.97-3.272-30.924 0-44.221 19.428-83.904 50.213-110.98 3.804-4.12 6.033-9.439 6.033-15.28 0-1.299-0.11-2.572-0.322-3.81-12.834-43.064-38.871-73.805-84.785-84.074-7.487-1.723-14.774-3.511-22.592-5.366zM422.758 800.199c-1.014-65.092-9.192-127.764-23.781-187.931-17.362-74.96-52.874-149.163-90.373-222.040-24.248-47.304-44.257-96-41.607-150.99 0.53-11.528 4.24-18.749 15.901-18.551 42.998 0.795 86.128 1.921 129.060 3.71 7.735 1.727 14.571 4.375 20.861 7.885-46.766 64.993-37.756 132.902-19.337 201.474 8.414 31.337 17.557 62.476 26.501 93.747 19.478 70.89 34.849 142.244 24.778 216.513-5.784 44.59-20.414 84.815-42.099 120.255l-216.75-144.437 1.921-3.379zM279.321 85.93h124.422c-1.458 7.95-2.849 14.642-3.975 21.4-3.048 18.352-12.058 27.23-32.199 24.58-6.824-0.454-14.794-0.713-22.824-0.713s-16 0.259-23.901 0.769c-33.706-0.056-34.567-0.851-40.729-36.031-0.398-2.65-0.398-5.168-0.795-10.004z" />
<glyph unicode="&#xe91c;" glyph-name="pown4" horiz-adv-x="667" d="M606.383 45.936c56.071-17.955 69.931-55.756 54.574-108.361h-204.201c0 18.428 1.181 35.753 0 52.921-1.296 15.956-4.739 30.724-10.055 44.562-3.513 6.045-10.441 11.102-18.623 12.357-39.521 1.436-78.896 1.357-118.272 0.491-7-1.104-12.767-5.543-15.696-11.609-4.442-16.178-8.151-35.619-10.432-55.494-0.538-8.258-0.745-15.717-0.745-23.224s0.207-14.966 0.614-22.371l-283.549 1.029c0 23.625-0.709 45.754 0.551 68.12 0 5.276 6.379 11.419 11.34 14.963 13.939 10.001 28.665 18.9 43.392 28.508-45.754 45.361-46.069 66.23 7.875 90.642 104.975 47.251 148.682 135.846 168.134 240.506 10.159 54.574 12.836 110.251 19.215 169.157-27.248 0-47.251-0.788-67.647 0-10.159 0.551-28.98 5.119-28.902 7.166 0.63 14.963 0.866 32.997 9.293 43.786 19.452 24.964 43.471 46.227 65.521 69.143 4.646 4.804 8.82 10.001 13.073 14.884-76.467 92.217-79.617 178.607-9.135 240.033 60.481 52.606 156.636 48.353 209.793-10.395 55.126-60.481 61.662-157.975-20.948-228.378 23.074-23.625 44.652-49.298 69.458-70.876 20.712-18.113 23.625-38.431 18.349-64.97h-91.981c2.284-40.006 2.599-77.727 6.93-114.977 8.584-74.341 26.145-146.162 69.458-209.163 21.429-30.453 49.43-54.875 82.050-71.547 19.218-9.538 34.485-18.805 48.913-29.166 23.468-17.571 24.255-36.314 3.228-58.049-5.828-5.67-11.498-10.395-21.578-19.688zM349.576 546.714c-7.875-148.524 7.009-299.254-61.19-439.667h165.377c-69.695 140.807-62.292 292.009-77.727 439.667zM357.451 789.819c-0.028-0.726-0.044-1.578-0.044-2.434 0-6.222 0.85-12.245 2.44-17.96 5.558-10.24 10.992-26.148 19.812-28.825 10.474-3.15 26.618 2.363 36.462 9.45 12.873 9.944 21.083 25.384 21.083 42.741 0 10.408-2.952 20.127-8.064 28.364-7.809 11.7-20 20.263-34.234 23.33-9.183 0.774-21.625-13.873-28.398-24.269-4.445-8.825-7.682-19.077-9.157-29.889zM416.751 591.603c-12.285 29.768-22.995 57.725-35.989 84.894-2.52 5.276-15.199 7.403-23.153 7.403-5.926-1.515-10.618-5.765-12.716-11.293-7.523-26.193-13.587-52.574-20.596-80.767z" />
<glyph unicode="&#xe91d;" glyph-name="queen4" horiz-adv-x="512" d="M231.861-64h-231.861c0 17.556-0.615 34.609 0.447 51.605 0 4.137 5.591 8.834 9.337 11.741 10.399 7.492 21.47 14.089 32.54 21.19-7.12 7.491-13.967 15.49-20.386 23.835-3.45 4.202-5.226 8.743-5.226 13.7 0 7.071 3.616 13.297 9.1 16.931 8.228 7.194 17.399 13.528 27.256 18.739 40.862 18.432 63.394 51.252 79.497 89.83 25.831 62.228 37.628 127.923 43.778 194.289 5.871 63.626 6.989 127.755 10.176 191.605 0 3.634-0.391 7.268-0.671 12.3h-59.545v65.136l30.751 2.684v48.418l27.955 2.404-49.704 154.872c1.979 0.728 4.267 1.209 6.649 1.339 16.834-2.402 26.003 4.028 37.129 18.341 12.133 15.711 33.882 23.986 52.164 35.95-8.442 19.792-7.157 34.217 7.157 43.498 4.752 3.549 10.741 5.682 17.229 5.682 7.183 0 13.756-2.615 18.817-6.945 13.155-10.366 14.385-25.238 4.042-46.373 41.933-12.58 53.283-21.078 65.359-50.319h33.155l-50.319-156.549 27.955-2.013v-48.642l31.086-1.845v-64.409h-59.489c0-17.947-0.503-34.385 0-50.767 3.578-96.837 10.847-193.45 36.118-287.38 9.281-34.441 24.433-67.484 39.137-100.080 9.866-20.178 26.021-36.007 45.872-45.21 12.304-5.946 22.288-11.937 31.696-18.681 19.493-14.048 20.108-30.709 1.993-47.538-3.914-3.634-8.051-7.101-13.139-11.573 12.3-8.051 24.097-15.375 35.279-23.426 3.522-2.516 7.939-6.821 8.107-10.455 0.839-16.773 0.391-34.105 0.391-51.885h-165.551c-3.746 28.458 5.591 58.594-12.636 85.823-26.837 0-54.736 0.391-82.58-0.447-5.312-0.909-9.652-4.379-11.757-9.070-3.395-17.264-5.295-34.708-7.141-52.152-0.783-7.38-0.168-14.872-0.168-24.153zM341.054 63.084c-50.711 162.979-35.391 329.872-44.225 494.696h-22.867c0-5.591 0-9.784 0-14.034-2.963-111.318-5.144-222.635-9.449-333.897-1.621-41.765-5.591-83.866-23.147-123.003-2.447-6.549-4.707-14.515-6.362-22.7zM303.37 700.464c0.895 9.337 1.901 17.835 2.516 26.334 2.74 37.46 5.032 74.92 8.051 112.324 1.845 22.7-8.722 39.137-30.415 45.679-9.896 3.019-17.556 1.565-19.010-9.84-1.22-8.041-1.917-17.318-1.917-26.759 0-2.918 0.067-5.821 0.198-8.707 2.277-38.728 5.576-77.865 8.316-116.667 1.565-24.321 1.174-24.377 26.11-23.594 2.459 0.313 4.603 0.724 6.698 1.256zM300.016 674.857h-25.327l-1.23-22.364c-5.591-4.026-13.027-6.989-13.251-10.343-1.174-19.569-0.559-39.137-0.559-58.538h56.637v62.787l-14.76 3.914z" />
<glyph unicode="&#xe91e;" glyph-name="rook4" horiz-adv-x="710" d="M558.277 744.376h-42.395l-2.562-38.047-37.503-1.941c0-14.83-0.621-29.583 0-44.181 5.28-103.58 6.755-207.704 31.059-309.188 9.664-39.225 21.447-73.035 35.952-105.358 15.528-34.948 41.462-67.56 81.527-86.583 14.176-7.049 26.256-14.406 37.646-22.656 29.751-20.67 31.149-41.48 4.438-66.792-4.814-4.581-9.939-9.007-16.694-15.529 16.228-10.638 32.456-20.343 47.364-31.68 6.13-4.474 10.486-11.062 12.003-18.674 1.508-22.401 0.576-44.763 0.576-68.212h-228.824c-0.544 6.755-1.32 13.2-1.398 19.722 0 17.16 0 34.397 0 51.557-1.398 38.047-11.492 47.83-48.607 47.83-26.866 0-53.887 0.854-80.675-0.621-8.016-1.199-14.652-6.192-18.106-13.061-4.253-18.030-7.659-39.656-9.567-61.711-1.445-14.987-0.125-28.42-0.125-43.328h-322.388c0 24.226-0.699 47.985 0.544 71.59 1.743 6.261 5.718 11.399 10.994 14.613 15.638 10.777 31.167 20.405 47.163 30.654-10.049 10.355-19.584 21.392-28.46 32.962-4.959 5.845-7.581 12.357-7.581 19.482 0 10.022 5.188 18.832 13.024 23.892 9.648 8.956 20.437 16.699 32.138 22.961 67.206 28.586 100.206 83.326 121.326 147.928 34.708 106.453 39.988 216.866 44.336 327.435 0.932 24.536 0 49.15 0 76.637l-35.873 2.562-2.252 37.27h-43.171l-13.355 216.090c30.437 0 59.244 0.699 87.973-0.776 4.038 0 10.172-10.948 10.715-17.237 2.873-31.99 4.115-64.058 6.134-96.126 0.544-7.765 1.708-16.15 2.64-25.002h39.522l7.765 138.133h122.837l7.143-137.512h40.92l8.463 136.735h97.679zM369.131 671.233c0-76.016 1.631-149.857-0.388-223.544-2.951-105.832-3.106-212.285-45.113-312.682-2.185-6.268-4.026-13.73-5.191-21.414l165.142-0.715c-69.882 181.615-60.797 370.917-71.901 558.355zM361.366 707.184h77.646v33.931h-77.646z" />
<glyph unicode="&#xe91f;" glyph-name="bishop5" horiz-adv-x="562" d="M171.602 636.725h57.705l-21.19 22.451c-35.065 37.209-39.668 80.598-18.478 124.555 19.298 40.047 44.146 77.382 68.426 118.312-12.613 24.343-12.613 39.227 3.595 50.957 5.363 4.356 12.275 6.994 19.803 6.994 8.659 0 16.503-3.49 22.201-9.14 13.809-13.872 12.611-29.386-1.516-50.45 21.316-33.677 44.146-65.336 61.994-99.707 10.021-20.202 16.885-43.727 19.236-68.565 3.026-27.673-10.029-51.26-27.876-71.252-6.307-7.316-14.127-13.685-25.226-24.154h58.021l1.703-38.533h33.173v-54.363h-77.823c1.64-23.65 2.964-45.218 4.667-66.724 6.307-78.265 12.613-156.529 37.84-231.704 19.992-59.219 52.471-108.032 111.563-135.15 10.344-5.019 19.239-10.584 27.465-16.971 19.267-14.373 20.592-30.896 3.942-49.059-4.73-5.171-10.406-9.46-17.028-15.451 12.613-8.388 25.731-15.577 37.083-24.659 5.343-4.312 9.101-10.399 10.379-17.354 1.415-16.512 0.469-32.972 0.469-50.631h-561.727c0 19.424-0.441 38.596 0.378 57.705 0 3.469 4.919 7.442 8.451 9.901 12.613 8.766 25.226 17.028 38.218 25.668-1.416 1.829-2.84 3.453-4.357 4.987-34.114 29.447-34.24 49.502 7.068 68.737 79.778 37.146 115.158 104.185 135.276 183.837 20.496 81.166 25.226 164.287 30.461 247.344-0.104 3.248-0.421 6.335-0.94 9.353l-76.253-0.398v54.174l33.299 1.829z" />
<glyph unicode="&#xe920;" glyph-name="king5" horiz-adv-x="449" d="M37.662 10.87c-32.311 30.291-32.008 43.115 6.412 61.845 55.534 27.060 76.688 76.89 88.956 131.263 11.040 44.748 19.963 98.59 24.926 153.573 5.365 69.169 4.406 134.548 6.425 199.675 0.353 10.955-2.777 15.398-14.338 14.489-12.621-0.959-25.243 0-39.177 0v56.090h26.253v45.437l24.99 1.565c-13.631 41.802-26.505 83.251-40.338 124.296-3.181 9.441-0.656 15.146 4.241 23.072 14.035 22.315 32.816 32.159 59.119 27.666 2.865-0.242 6.2-0.38 9.567-0.38s6.702 0.138 10 0.409l-0.433 32.888h-37.662v37.662h37.864v39.581h39.177v-38.268h38.773v-38.167h-37.915v-34.027c13.884 0 27.868-0.757 41.752 0.252 9.643 0.707 15.146-3.484 21.759-9.693 18.983-17.72 23.829-35.744 13.278-61.239-13.833-33.371-22.87-68.761-34.33-104.354l24.284-1.161v-44.377h27.010v-57.705h-52c-0.959-10.652-2.474-20.194-2.575-30.291-1.161-91.783 2.827-183.364 17.72-274.036 7.977-48.567 19.134-96.428 43.822-139.896 11.843-21.892 29.885-39.138 51.764-49.681 9.467-4.58 16.998-9.235 24.011-14.538 16.21-11.762 17.32-24.989 3.336-40.135-3.484-3.786-7.724-6.917-13.177-11.713 10.097-6.816 20.194-13.126 29.938-20.194 3.673-2.298 6.402-5.814 7.642-9.972 0.89-14.614 0.385-29.205 0.385-44.704h-449.12c0 15.146-0.404 30.291 0.303 45.033 0.928 3.941 3.296 7.214 6.505 9.304 10.055 7.003 20.455 13.414 30.855 20.432z" />
<glyph unicode="&#xe921;" glyph-name="knight5" horiz-adv-x="607" d="M446.82 162.102v-27.258c26.508-4.77 52.198-8.791 77.616-14.242 14.42-3.139 27.098-7.504 39.058-13.142 27.11-12.685 30.108-32.583 8.098-55.138-4.77-4.906-10.153-9.268-16.627-15.128 14.31-9.336 27.871-17.513 40.886-26.781 4.949-3.094 8.615-7.845 10.248-13.462 1.2-19.792 0.518-39.486 0.518-60.338h-606.618c0 20.92-0.613 41.704 0.477 62.42 0 4.225 5.997 9.063 10.29 12.13 12.947 9.131 26.372 17.581 38.297 25.35-7.428 8.245-14.924 15.264-20.92 23.442-14.31 19.353-11.448 38.91 11.039 46.542 33.459 11.312 68.689 17.445 103.238 25.554 4.605 0.841 10.177 1.497 15.838 1.822l0.38 27.888c-8.791 2.317-18.126 4.089-27.258 7.223-64.192 22.624-85.861 84.294-60.58 149.031 12.198 31.142 34.072 59.694 56.355 85.453 34.481 40.069 74.209 75.504 109.030 115.3 17.854 20.443 29.915 46.065 45.52 70.87-49.473 10.63-115.368-15.537-139.832-52.062-16.15-24.123-24.396-25.418-50.427-11.584-30.12 15.537-43.748 37.82-44.294 74.277-1.090 45.248 9.949 77.207 48.246 105.214 44.634 32.368 81.773 74.958 124.158 110.53 25.874 20.727 54.809 40.694 85.13 58.559 16.541 9.925 25.196 18.58 27.24 33.708 0.764 3.721 1.61 6.829 2.625 9.86 11.14 43.906 11.14 43.906 57.341 40.635 65.963-4.634 112.369-39.66 142.080-96.219 40.546-77.139 51.381-160.070 37.411-245.318-4.429-27.258-20.443-51.789-30.12-78.161-13.629-39.524-30.597-78.774-38.706-119.593-11.312-57.241 0.954-110.189 48.178-150.666 2.602-3.433 4.168-7.776 4.168-12.486 0-1.984-0.278-3.902-0.797-5.719-14.751-46.736-44.258-77.946-94.957-85.374-3.68-0.545-7.291-1.84-12.334-3.135z" />
<glyph unicode="&#xe922;" glyph-name="pown5" horiz-adv-x="667" d="M417.86 677.864c23.808-21.298 47.212-43.891 72.397-64.299 21.055-17.087 26.157-37.494 19.273-64.784h-92.075c2.186-40.085 2.591-77.66 6.721-114.831 8.098-72.883 25.185-143.336 66.323-205.772 22.298-33.67 52.629-60.364 88.333-77.732 17.687-8.549 31.701-17.092 44.822-26.777 25.486-18.825 25.972-38.827 2.245-61.502-4.94-4.778-10.447-9.151-18.545-17.249 56.201-17.735 69.562-56.686 54.662-109.324h-662.017c0 22.432-0.729 45.673 0.567 68.753 0 5.021 7.369 10.527 12.552 14.172 13.767 10.204 27.938 18.302 41.705 27.452-1.458 2.753-1.782 4.292-2.753 5.183-42.191 34.741-41.705 57.739 6.155 83.653s94.504 50.937 119.932 100.416c17.515 32.575 33.465 70.697 45.735 110.434 19.535 67.4 24.232 132.508 21.884 201.909-21.055 0-41.138-0.648-61.14 0-10.527 0.486-28.91 1.944-29.963 6.236-3.887 16.196-7.045 33.364 8.827 48.102 23.889 22.108 45.835 46.24 68.51 69.643 3.563 3.725 6.721 8.098 9.961 11.661-73.935 83.977-80.009 171.517-16.844 232.333 27.494 27.429 65.441 44.39 107.35 44.39 41.219 0 78.607-16.407 105.987-43.047 65.155-63.455 59.729-149.295-20.604-239.021z" />
<glyph unicode="&#xe923;" glyph-name="queen5" horiz-adv-x="512" d="M0-64c0 17.246-0.69 33.112 0.402 48.576 1.011 5.609 4.060 10.37 8.337 13.584 10.748 8.031 22.36 14.814 34.087 22.402-6.851 6.803-13.336 13.943-19.44 21.406-9.476 12.798-8.269 24.985 4.206 34.355 9.056 7.325 19.227 14.007 30.032 19.641 33.605 15.828 53.667 42.157 68.614 73.487 25.754 54.094 37.079 112.098 45.644 170.791 9.554 65.509 15.010 141.142 15.010 218.049 0 8.387-0.065 16.759-0.194 25.115l-60.23-1.263v65.132l30.64 2.299v48.921l27.996 1.667-49.84 155.615c2.099 0.634 4.534 1.066 7.047 1.204 15.832-1.606 25.26 3.108 36.125 17.249 12.245 16.211 34.492 24.834 52.887 37.136-8.565 18.453-7.128 32.135 6.553 42.885 5.038 3.545 11.301 5.666 18.060 5.666 7.404 0 14.214-2.545 19.602-6.808 12.408-10.354 13.558-25.991 3.613-44.846 12.992-5.749 27.306-9.6 38.631-17.706s19.43-20.293 31.617-33.629h27.938l-50.185-156.822 27.766-1.322v-49.611l31.387-1.725v-64.040h-59.671c0-19.833-0.69-37.423 0-55.014 4.656-103.475 12.072-206.49 42.31-306.171 10.091-30.502 21.411-56.46 34.759-81.162 9.157-17.839 25.906-33.846 46.363-43.101 11.198-5.423 20.24-10.932 28.72-17.161 20.421-14.306 21.168-31.207 2.083-48.682-3.564-3.277-7.243-6.438-12.417-10.98 11.785-7.818 23.569-14.774 34.147-22.994 4.432-3.681 7.478-8.896 8.321-14.821 1.107-15.532 0.417-31.111 0.417-47.609z" />
<glyph unicode="&#xe924;" glyph-name="rook5" horiz-adv-x="711" d="M0-64c0 23.955-0.719 46.473 0.479 68.751 1.115 7.085 4.883 13.131 10.235 17.2 15.557 11.546 32.006 21.448 48.934 31.988-2.396 2.635-3.673 4.312-5.19 5.669-43.279 38.648-43.918 63.88 7.506 87.835 85.839 39.925 119.775 112.349 139.978 196.272 25.233 104.604 30.423 211.284 31.94 318.283 0 13.335 0 26.67 0 42.081l-36.492 3.034-1.837 37.29h-43.199l-13.016 215.117h97.337l9.742-137.422h39.925l7.985 137.901h122.57l7.506-138.381h40.564l8.784 138.381h97.657l-12.457-214.079-42.64-2.076-2.954-37.051-36.571-1.837c0-15.491-0.479-30.822 0-46.074 3.513-96.938 5.909-194.196 27.389-289.218 11.565-48.466 25.614-90.192 42.911-130.185 13.978-32.154 42.486-61.438 78.114-77.973 16.245-7.897 29.331-16 41.533-25.215 26.128-19.433 27.087-38.917 3.691-63.031-5.669-5.909-12.057-11.179-19.963-18.445 15.97-10.221 31.221-19.483 45.754-30.263 6.496-4.123 11.302-10.409 13.44-17.825 1.652-23.138 0.693-46.215 0.693-70.569z" />
<glyph unicode="&#xe942;" glyph-name="phone" d="M704 320c-64-64-64-128-128-128s-128 64-192 128-128 128-128 192 64 64 128 128-128 256-192 256-192-192-192-192c0-128 131.5-387.5 256-512s384-256 512-256c0 0 192 128 192 192s-192 256-256 192z" />
<glyph unicode="&#xe970;" glyph-name="bubbles4" horiz-adv-x="1152" d="M480 832c-50.666 0-99.582-7.95-145.386-23.628-42.924-14.694-81.114-35.436-113.502-61.646-60.044-48.59-93.112-110.802-93.112-175.174 0-35.99 10.066-70.948 29.92-103.898 20.686-34.34 51.898-65.794 90.26-90.958 30.44-19.968 50.936-51.952 56.362-87.95 0.902-5.99 1.63-12.006 2.18-18.032 2.722 2.52 5.424 5.114 8.114 7.794 24.138 24.040 56.688 37.312 90.322 37.312 5.348 0 10.718-0.336 16.094-1.018 19.36-2.452 39.124-3.696 58.748-3.696 50.666 0 99.58 7.948 145.384 23.628 42.926 14.692 81.116 35.434 113.504 61.644 60.046 48.59 93.112 110.802 93.112 175.174s-33.066 126.582-93.112 175.174c-32.388 26.212-70.578 46.952-113.504 61.646-45.804 15.678-94.718 23.628-145.384 23.628zM480 960v0c265.096 0 480-173.914 480-388.448s-214.904-388.448-480-388.448c-25.458 0-50.446 1.62-74.834 4.71-103.106-102.694-222.172-121.108-341.166-123.814v25.134c64.252 31.354 116 88.466 116 153.734 0 9.106-0.712 18.048-2.030 26.794-108.558 71.214-177.97 179.988-177.97 301.89 0 214.534 214.904 388.448 480 388.448zM996 89.314c0-55.942 36.314-104.898 92-131.772v-21.542c-103.126 2.318-197.786 18.102-287.142 106.126-21.14-2.65-42.794-4.040-64.858-4.040-95.47 0-183.408 25.758-253.614 69.040 144.674 0.506 281.26 46.854 384.834 130.672 52.208 42.252 93.394 91.826 122.414 147.348 30.766 58.866 46.366 121.582 46.366 186.406 0 10.448-0.45 20.836-1.258 31.168 72.57-59.934 117.258-141.622 117.258-231.676 0-104.488-60.158-197.722-154.24-258.764-1.142-7.496-1.76-15.16-1.76-22.966z" />
</font>
</defs>
</svg>
