<svg xmlns="http://www.w3.org/2000/svg" viewBox="0 0 81.47 163.8"><title>bishop</title><g id="Layer_2" data-name="Layer 2"><g id="Layer_1-2" data-name="Layer 1"><path d="M27.26,61h27c-4.26,23.45-.28,45,14,64.51H13.2C27.47,106,31.72,84.54,27.26,61Z"/><path d="M81.44,163.8H0q0-6.64,0-13.25c0-1.64-.05-3.29,0-4.93A6.71,6.71,0,0,1,6.91,139q32.83-.05,65.66-.09c2.55,0,5.21-.12,6.93,2.28.78,1.09,1.82,2.35,1.86,3.56C81.54,151,81.44,157.35,81.44,163.8Z"/><path d="M38.25,12.53c-3.32-2-4.55-4.87-3.66-8.21C35.15,2.19,37.78.21,40.33,0s5.79,1.72,6.58,3.93c1.13,3.19,0,5.88-3.19,8.47,5.86,6.06,11.63,12.28,17.67,18.22,5.43,5.34,6.09,11,2.4,16a6.4,6.4,0,0,1-5.69,3c-11.19-.19-22.38-.08-33.57-.08-5.2,0-8.92-3.61-9.24-8.91-.26-4.29,2.19-7.19,5-10C26.22,24.67,32.16,18.67,38.25,12.53Z"/><path d="M74.46,136.41H7.3c-1.42-5,1.35-8.39,6.8-8.39h21.7c10.45,0,20.91.2,31.35-.09C72.27,127.81,75.67,131.64,74.46,136.41Z"/><path d="M40.59,58.41c-6.66,0-13.32,0-20,0-2.74,0-3.24-.56-3.23-3.38s.55-3.34,3.31-3.35q20.1,0,40.2,0c2.86,0,3.06.28,3.06,3.4s-.2,3.31-3.14,3.32C54.07,58.43,47.33,58.41,40.59,58.41Z"/></g></g></svg>