<svg xmlns="http://www.w3.org/2000/svg" viewBox="0 0 77.11 134.01"><title>queen_1</title><g id="Layer_2" data-name="Layer 2"><g id="Layer_1-2" data-name="Layer 1"><path d="M2.87,13.11l8.83,2.2c-1.49,10.43,6.86,14.78,12.72,21V17.83l-4.71-5.65L24.46,0l8,9.82.92-.5L31,17,38,33.34l1.38.1L46.55,17l-2.08-6.92L53.18.22l4.73,11.9-4.86,5.77V35.56l.84.55c2.72-3,5.17-6.33,8.22-9,3.74-3.22,2.73-7.59,3.43-12l9.58-2.58c-1.12,2.68-1.74,4.32-2.47,5.91-5.83,12.72-11.8,25.38-17.43,38.18a13.79,13.79,0,0,0-.75,7.59c2.59,14.25,5.47,28.45,8.27,42.67.38,1.94.87,3.87,1.39,6.16l13,.62V134H.78c-1.26-6.8-.72-13.27-.31-20.07l13.06-.63c1.29-6.32,2.58-12.46,3.8-18.61,1.94-9.8,3.65-19.65,5.81-29.4a14.88,14.88,0,0,0-1.28-10.09C16.07,42.84,10.42,30.41,4.74,18,4.15,16.7,3.71,15.33,2.87,13.11Z"/></g></g></svg>