<svg xmlns="http://www.w3.org/2000/svg" viewBox="0 0 62.97 137.74"><title>3_pown</title><g id="Layer_2" data-name="Layer 2"><g id="Layer_1-2" data-name="Layer 1"><path d="M9.16,97.79H53.39c-.29,1.14-.47,2.1-.77,3-1.59,4.79.32,8.49,3.64,11.72,3.83,3.72,5.34,8.22,5.08,13.68H1.7c-.64-5.22,1.38-9.57,4.58-13C10.51,108.64,12.31,104,9.16,97.79Z"/><path d="M31.33,36a42.77,42.77,0,0,0-6.72.06c-4.42.71-6.64-1.59-8.68-5.06C8.09,17.65,15,2.21,28.5.22A19.06,19.06,0,0,1,49.83,24c-.1.38-.22.76-.34,1.14C46.54,34.69,44.73,36,34.89,36Zm-15.25-17a34.77,34.77,0,0,0,1.24,5.48c.32.85,1.59,1.33,2.44,2,.3-1,1-2.06.83-2.92-1-4.18-1.35-8.11,2.62-11.08A14.49,14.49,0,0,0,26,10.41a10.18,10.18,0,0,0,1.12-3C26,7.24,24.52,6.53,23.76,7A15.55,15.55,0,0,0,16.08,19.07Z"/><path d="M18,51.18H45c.63,11,.93,22,7.32,32H10.71C16.89,73.35,17.36,62.32,18,51.18Z"/><path d="M63,129.82v7.92H0v-7.92Z"/><path d="M58.77,87.63v6.73H4.7V87.63Z"/><path d="M52.42,48.35H11.06c.25-5,3.64-8.4,8.43-8.43,7.51,0,15,0,22.54,0C48,39.92,50.58,42,52.42,48.35Z"/></g></g></svg>