<svg xmlns="http://www.w3.org/2000/svg" viewBox="0 0 91.45 131.88"><title>4_rook</title><g id="Layer_2" data-name="Layer 2"><g id="Layer_1-2" data-name="Layer 1"><path d="M71.9,27.77H66.44l-.33,4.9-4.83.25c0,1.91-.08,3.81,0,5.69.68,13.34.87,26.75,4,39.82a78.85,78.85,0,0,0,4.43,13.07c2.2,5,5.54,9.2,10.7,11.65A33.79,33.79,0,0,1,85.16,106c3.93,2.73,4.11,5.41.67,8.67-.62.59-1.28,1.16-2.15,2,2.09,1.37,4.18,2.62,6.1,4.08a3.92,3.92,0,0,1,1.55,2.43c.19,2.86.07,5.74.07,8.76H61.93c-.07-.87-.17-1.7-.18-2.54,0-2.21,0-4.43,0-6.64-.18-4.9-1.48-6.16-6.26-6.16-3.46,0-6.94-.11-10.39.08a3.11,3.11,0,0,0-2.34,1.7,61.52,61.52,0,0,0-1.24,8.16c-.17,1.7,0,3.43,0,5.35H0c0-3.12-.09-6.18.07-9.22a3.18,3.18,0,0,1,1.43-1.89c2-1.38,4-2.62,6.06-3.94a48.28,48.28,0,0,1-3.75-4.36A3.66,3.66,0,0,1,4.61,107a19.66,19.66,0,0,1,4.23-3c8.55-3.63,12.8-10.68,15.52-19,4.47-13.71,5.15-27.93,5.71-42.17.12-3.16,0-6.33,0-9.87l-4.62-.33-.29-4.8H19.6L17.88,0c3.92,0,7.63-.09,11.33.1.52,0,1.31,1.41,1.38,2.22.37,4.12.53,8.25.79,12.38.07,1,.22,2.08.34,3.22h5.09l1-17.79H53.63l.92,17.71h5.27L60.91.23H73.49ZM47.54,37.19c0,9.79.21,19.3-.05,28.79-.38,13.63-.4,27.34-5.81,40.27A16.64,16.64,0,0,0,41,109.1H62.28c-9-23.39-7.83-47.77-9.26-71.91Zm-1-4.63h10V28.19h-10Z"/></g></g></svg>