<svg xmlns="http://www.w3.org/2000/svg" viewBox="0 0 50.62 67.87"><title>king5</title><g id="Layer_2" data-name="Layer 2"><g id="Layer_1-2" data-name="Layer 1"><path d="M0,67.87V58.93c7.56-1.25,15.19-2.28,19.49-10.78L12.59,47c1.78-1.63,2.78-3.35,3.85-3.39,6.63-.25,13.26-.13,19.91-.13,2.42,5.54-2.43,3.45-4.72,4.75,3.57,8.34,11.17,9.33,19,10.59v9Z"/><path d="M34.8,40.95h-19L6.31,25.14H44.44Z"/><path d="M32.93,11.42l-4,.75-.41,1.41c3,1.05,6.05,2.05,9,3.17,2.49.93,4.92,2,7.38,3l-.6,1.57h-38c3.26-6.95,12-3,16-8.8l-4.46-1.24C16.62,7.67,17.42,5.43,22,5.77L23,.31,27.9,0l.85,5.38C32,5.71,34.79,6.8,32.93,11.42Z"/></g></g></svg>