<svg xmlns="http://www.w3.org/2000/svg" viewBox="0 0 50.68 62.83"><title>pown5</title><g id="Layer_2" data-name="Layer 2"><g id="Layer_1-2" data-name="Layer 1"><path d="M25.25,35.89C13.73,35.89,8.85,32.52,6.64,23A18.85,18.85,0,0,1,16.49,2.13,19.3,19.3,0,0,1,40,6.81a19.08,19.08,0,0,1,.66,23.56C37.11,35.2,35.16,35.89,25.25,35.89Z"/><path d="M0,62.83V54.09C7.51,52.59,15.43,52,19.2,43.25a10.4,10.4,0,0,1-2.81-.45,20.36,20.36,0,0,1-2.72-2c1-.72,2-2,3.1-2.07,6.47-.19,13-.1,19.4-.1,2.63,5.43-2.31,3.6-4.57,5C35.26,52,43.06,52.68,50.68,54v8.8Z"/></g></g></svg>