<svg xmlns="http://www.w3.org/2000/svg" viewBox="0 0 76.41 140.89"><title>king_1</title><g id="Layer_2" data-name="Layer 2"><g id="Layer_1-2" data-name="Layer 1"><path d="M63.21,120.11l13.21.6v20.17H0V121.06l12.63-.82c.64-1.73,1.29-3.24,1.77-4.81C18,103.31,21.57,91.16,25.33,79.07a10.81,10.81,0,0,0-.76-8.61c-4.25-8.47-8.35-17-12.44-25.39,10.63-11.91,38.06-13.22,52-.23-2.34,4.87-4.77,9.93-7.21,15S52,70,49.59,74.88Z"/><path d="M33.08.7,43.47,0,42.25,8.26l7.89-.55v9.9L42,16.9l1.86,12.63H32.38L34,16.81l-7.68.51V8.11l7.19.32Z"/></g></g></svg>