<svg xmlns="http://www.w3.org/2000/svg" viewBox="0 0 89.03 150.27"><title>5_knight</title><g id="Layer_2" data-name="Layer 2"><g id="Layer_1-2" data-name="Layer 1"><path d="M65.57,117.09v4c3.89.7,7.66,1.29,11.39,2.09a26.52,26.52,0,0,1,5.57,1.86c4.14,1.93,4.58,4.85,1.35,8.16-.7.72-1.49,1.36-2.44,2.22,2.1,1.37,4.09,2.57,6,3.93a3.46,3.46,0,0,1,1.51,2c.17,2.88.07,5.77.07,8.83H0c0-3.07-.09-6.12.07-9.16,0-.62.88-1.33,1.51-1.78,1.9-1.34,3.87-2.58,5.62-3.72-1.09-1.21-2.19-2.24-3.07-3.44-2.1-2.84-1.68-5.71,1.62-6.83,4.91-1.66,10.08-2.56,15.15-3.75a20.92,20.92,0,0,1,2.38-.27v-4.09c-1.29-.34-2.66-.6-4-1.06-9.42-3.32-12.6-12.37-8.89-21.87,1.79-4.57,5-8.76,8.27-12.54,5.06-5.88,10.89-11.08,16-16.92,2.62-3,4.39-6.76,6.68-10.4-7.26-1.56-16.93,2.28-20.52,7.64-2.37,3.54-3.58,3.73-7.4,1.7C9,61.41,7,58.14,6.92,52.79,6.76,46.15,8.38,41.46,14,37.35c6.55-4.75,12-11,18.22-16.22a108.54,108.54,0,0,1,13-8.87c1.92-1.18,3.19-2.45,3.49-4.67a12.32,12.32,0,0,1,.36-1.36C50.73-.3,50.73-.3,57.51.18,67.19.86,74,6,78.36,14.3c5.95,11.32,7.54,23.49,5.49,36-.65,4-3,7.6-4.42,11.47-2,5.8-4.49,11.56-5.68,17.55-1.66,8.4.14,16.17,7.07,22.11a3.05,3.05,0,0,1,.5,2.65c-2.17,6.88-6.5,11.46-13.94,12.55C66.84,116.71,66.31,116.9,65.57,117.09Z"/></g></g></svg>