<svg xmlns="http://www.w3.org/2000/svg" viewBox="0 0 89.03 128.24"><title>5_rook</title><g id="Layer_2" data-name="Layer 2"><g id="Layer_1-2" data-name="Layer 1"><path d="M0,128.24c0-3-.09-5.82.06-8.61a3.34,3.34,0,0,1,1.29-2.16c1.94-1.44,4-2.68,6.12-4-.3-.33-.46-.54-.65-.71-5.42-4.84-5.5-8,.94-11,10.75-5,15-14.07,17.53-24.58,3.16-13.1,3.81-26.46,4-39.86,0-1.67,0-3.34,0-5.27l-4.57-.38L24.49,27H19.08L17.45.06H29.64l1.22,17.21h5L36.86,0H52.21l.94,17.33h5.08L59.33,0H71.56L70,26.81l-5.34.26-.37,4.64-4.58.23c0,1.94-.06,3.86,0,5.77.44,12.14.74,24.32,3.43,36.22A97.81,97.81,0,0,0,68.27,89.6a20,20,0,0,0,10.15,10.45,30.81,30.81,0,0,1,5,3.05c3.35,2.49,3.47,4.93.54,7.95-.71.74-1.51,1.4-2.5,2.31,2,1.28,3.91,2.44,5.73,3.79a3.92,3.92,0,0,1,1.69,2.26c.2,2.87.08,5.76.08,8.81Z"/></g></g></svg>