<svg xmlns="http://www.w3.org/2000/svg" viewBox="0 0 89 199.86"><defs><style>.cls-1{fill:#fff;}</style></defs><title>3_bishop</title><g id="Layer_2" data-name="Layer 2"><g id="Layer_1-2" data-name="Layer 1"><path d="M87.27,188H1.68c.55-6.25,3.1-10.94,8.26-14.3,7.32-4.77,7.66-6,5-14.24-.2-.6-.38-1.22-.65-2.08H74.72c-.32,1.07-.55,1.93-.83,2.78-2.4,7.5-1.61,9.31,5.25,13.39C84.42,176.69,86.78,181.62,87.27,188Z"/><path d="M47.91,15.67c7,3.35,5,8,2.65,12.91C48,33.92,45.79,39.44,43.37,44.86c-1,2.18-1.28,4.29,1.34,5.29s3.43-1.13,4.23-3l8.73-20.39C71,41.06,72.84,53.28,64,68.06c-2.14,3.6-4.2,5.62-8.86,5.3-7.88-.53-15.83-.11-23.75-.19-1.08,0-2.67-.18-3.17-.88-6.12-8.7-11.31-17.75-7.31-29,3.12-8.72,8.88-15.79,14.83-22.7,1.53-1.78,3.22-3.43,4.83-5.13C35.8,10.18,35.33,5.44,39.15,2a8.28,8.28,0,0,1,11.15.36C53.65,5.77,52.93,10.86,47.91,15.67ZM31.7,66.38c2.85-1.93,1.22-3.47,0-4.95-4.41-5.16-5-10.88-2.28-16.92,1.46-3.22,3.49-6.17,5-9.35.54-1.1.45-2.51.65-3.78-1.21.65-2.9,1-3.56,2a104.84,104.84,0,0,0-5.51,10C22.19,51,22.16,56.62,31.7,66.38Z"/><path d="M72,141.77H17.25c7-14.8,8.28-30.35,9.14-46.35H63C64.13,111.13,64.37,126.91,72,141.77Z"/><path d="M0,199.86v-8.18H89v8.18Z"/><path d="M82.3,145.51v8.35H7a5.82,5.82,0,0,1-.35-1.16c-.52-7.17-.51-7.18,6.72-7.19H82.3Z"/><path d="M17,92.22V87H71.77v5.19Z"/><path d="M65,77.56v5.11H24V77.56Z"/><path class="cls-1" d="M31.7,66.38c-9.54-9.76-9.52-15.33-5.7-23a104.84,104.84,0,0,1,5.51-10c.65-1,2.34-1.36,3.56-2-.2,1.27-.11,2.68-.65,3.78-1.56,3.18-3.59,6.13-5,9.35-2.74,6-2.13,11.76,2.28,16.92C32.92,62.91,34.56,64.45,31.7,66.38Z"/></g></g></svg>