<svg xmlns="http://www.w3.org/2000/svg" viewBox="0 0 88.86 166.99"><title>3_knight</title><g id="Layer_2" data-name="Layer 2"><g id="Layer_1-2" data-name="Layer 1"><path d="M43.56,10.63c0-5.32.2-5.52,4.83-4.65,20.73,3.89,35,19.72,37.77,41.26,1.55,12.18-.45,23.91-3.34,35.6-2.15,8.69-4.41,17.36-6.72,26.4H69.22c1.65-7.82,3-15.41,4.89-22.84,3.07-11.92,5.85-23.8,4.21-36.25C76.71,37.86,71.14,28,60.8,21c-.86-.58-2.24-.38-3.37-.55.51.91.78,2.14,1.55,2.69C73.71,33.82,77.6,48.76,75.2,65.77c-1.21,8.57-3.67,17-5.54,25.45-1.3,5.89-2.58,11.79-3.94,18H10.3C9.85,97.43,14.2,87.8,22.11,79.57c3.83-4,7.91-7.78,11.45-12,6.86-8.2,10.88-17.39,8.18-28.42a4.24,4.24,0,0,0-.59-1C38.5,47,36.47,48.92,26.77,49.23a11.84,11.84,0,0,0-9.61,4.86c-3,3.67-6.49,3.77-9.76.78a8.23,8.23,0,0,1-1.16-11C12.44,36,18.15,27.73,25,20.44c3.59-3.84,4.51-7.19,3.46-11.94-.52-2.33-.09-4.87-.09-8.5ZM6.71,47l.94.82C11.8,46.39,22.92,32.4,22,28.89Z"/><path d="M13.68,125.35H75.23c-5,8.33-2.54,13.84,5.61,18.11,4,2.1,5.51,6.8,6.06,11.66H1.47c.93-5.66,3.17-10.11,8-13.19,8-5.16,8.1-5.52,4.89-14.24C14.11,127.08,14,126.44,13.68,125.35Z"/><path d="M0,167v-8.34H88.86V167Z"/><path d="M6.49,121.89v-7.82H81.87v7.82Z"/></g></g></svg>