<svg xmlns="http://www.w3.org/2000/svg" viewBox="0 0 91.49 208.66"><title>4_king</title><g id="Layer_2" data-name="Layer 2"><g id="Layer_1-2" data-name="Layer 1"><path d="M57.69,15.84H49.77v6.79c2.93,0,5.7.1,8.46,0a5.59,5.59,0,0,1,4.46,1.94c3.92,3.7,4.84,7.43,2.64,12.68-2.81,6.7-4.59,13.82-6.9,21l4.89.35v8.92l5.67.29V79.39H57.83c0,3.66,0,7,0,10.33,0,17.62.75,35.21,3.59,52.61,1.58,9.66,4,19.17,9.08,27.77a23.09,23.09,0,0,0,9.82,9.46,36.23,36.23,0,0,1,5.41,3.29c3.24,2.37,3.42,5.1.66,8-.79.83-1.7,1.54-2.73,2.47a44.34,44.34,0,0,0,5.08,3.32c2.27,1.09,2.91,2.7,2.7,5.07-.19,2.18,0,4.39,0,6.81H61.91c0-.71-.14-1.54-.15-2.37,0-2.21.08-4.43,0-6.64-.28-5-1.61-6.25-6.52-6.25-3.18,0-6.36.13-9.52,0-2-.1-3.12.65-3.4,2.57-.35,2.45-.68,4.91-.87,7.38-.14,1.79,0,3.59,0,5.48H0c0-3.2-.09-6.34.07-9.47,0-.64.89-1.36,1.53-1.81,1.95-1.38,4-2.64,6-3.94-.21-.33-.27-.55-.41-.65-6.45-4.7-5.11-8.83,1-11.57,12.59-5.67,16.56-17,19.53-28.95,5.15-20.7,5.75-41.85,5.76-63,0-2.5-.13-5-.05-7.5.05-1.73-.54-2.42-2.33-2.35-2.77.11-5.55,0-8.55,0V67.74h5.31V58.59L33,58.28c-2.62-8.16-5-16.23-7.84-24.17-1-2.87-.25-4.62,1.39-7,2.62-3.73,5.73-5.24,10.17-4.57a33,33,0,0,0,4.89,0V15.82H33.62L34,8.43l7.6-.36A38.64,38.64,0,0,0,41.86,3c-.17-2.35.92-3.07,3-3,1.41.07,2.83,0,4.25,0l.56,8a31.07,31.07,0,0,0,5,.23c2.28-.25,2.89,1,3,2.8C57.74,12.45,57.69,13.88,57.69,15.84ZM60.58,185.9C52,152.29,54.66,118,52.92,84c-4.08-.65-4.07-.62-4.15,3.29-.46,22.78-.79,45.57-1.49,68.34-.28,9.17-1,18.38-4.53,27.07a19.2,19.2,0,0,0-.69,3.25ZM54.28,58.33c.43-5.59.85-10.93,1.23-16.27.25-3.54.53-7.08.65-10.62.09-2.55-1.9-5.73-3.45-5.88C49.43,25.24,48,26.32,47,30a7.07,7.07,0,0,0-.14,2.28q.7,10.18,1.46,20.36c.14,1.88.32,3.75.49,5.69ZM49,62.86l-.36,4.55c-1.1.37-2.17,1-2.21,1.66-.18,3.31-.08,6.64-.08,10.06H56.59V68l-2.7-.65-.24-4.46Z"/></g></g></svg>