<svg xmlns="http://www.w3.org/2000/svg" viewBox="0 0 84.66 130.03"><title>4_pown</title><g id="Layer_2" data-name="Layer 2"><g id="Layer_1-2" data-name="Layer 1"><path d="M77,116.07c7.12,2.28,8.88,7.08,6.93,13.76H58c0-2.34.15-4.54,0-6.72a20.25,20.25,0,0,0-1.23-5.52,3.31,3.31,0,0,0-2.43-1.71c-5-.18-10-.17-15-.06a2.66,2.66,0,0,0-2,1.49A51.79,51.79,0,0,0,36,124.58,50.86,50.86,0,0,0,36,130H0c0-3-.09-5.81.07-8.65,0-.67.81-1.45,1.44-1.9,1.77-1.27,3.64-2.4,5.51-3.62-5.81-5.76-5.85-8.41,1-11.51,13.33-6,18.88-17.25,21.35-30.54,1.29-6.93,1.63-14,2.44-21.48-3.46,0-6,.1-8.59,0-1.29-.07-3.68-.65-3.67-.91.08-1.9.11-4.19,1.18-5.56,2.47-3.17,5.52-5.87,8.32-8.78.59-.61,1.12-1.27,1.66-1.89C21,23.45,20.6,12.48,29.55,4.68,37.23-2,49.44-1.46,56.19,6c7,7.68,7.83,20.06-2.66,29,2.93,3,5.67,6.26,8.82,9,2.63,2.3,3,4.88,2.33,8.25H53c.29,5.08.33,9.87.88,14.6,1.09,9.44,3.32,18.56,8.82,26.56a28.49,28.49,0,0,0,10.58,9.16,43.49,43.49,0,0,1,5.92,3.54c3.11,2.32,3.21,4.7.54,7.46C79,114.29,78.28,114.89,77,116.07ZM44.39,52.48c-1,18.86.89,38-7.77,55.83h21c-8.85-17.88-7.91-37.08-9.87-55.83Zm1-30.87a8.49,8.49,0,0,0,.29,2.53c.72,1.36,1.41,3.38,2.53,3.72,1.33.4,3.38-.3,4.63-1.2a6.84,6.84,0,0,0,1.67-9,7,7,0,0,0-4.41-3c-1.12-.09-2.7,1.77-3.56,3.09A12.45,12.45,0,0,0,45.37,21.61Zm7.53,25.17C51.36,43,50,39.45,48.35,36c-.32-.67-1.93-.94-2.94-.94a2.33,2.33,0,0,0-1.62,1.45c-.95,3.31-1.72,6.66-2.61,10.24Z"/></g></g></svg>