<svg xmlns="http://www.w3.org/2000/svg" viewBox="0 0 91.52 183.15"><title>4_queen</title><g id="Layer_2" data-name="Layer 2"><g id="Layer_1-2" data-name="Layer 1"><path d="M41.47,183.15H0c0-3.14-.11-6.19.08-9.23,0-.74,1-1.58,1.67-2.1,1.86-1.34,3.84-2.52,5.82-3.79a53.9,53.9,0,0,1-3.74-4.39,3.63,3.63,0,0,1,.8-5.36,25.46,25.46,0,0,1,5-3.41c7.17-3.23,11.2-9.1,14.08-16,4.62-11.13,6.73-22.88,7.83-34.75,1.05-11.38,1.25-22.85,1.82-34.27,0-.65-.07-1.3-.12-2.2H22.59V56l5.5-.48V46.86l5-.43-8.89-27.7a4.25,4.25,0,0,1,1.2-.24c3,.43,4.64-.72,6.63-3.28,2.17-2.81,6.06-4.29,9.33-6.43C39.85,5.24,40.08,2.66,42.64,1a5.18,5.18,0,0,1,6.44.22c2.36,1.86,2.58,4.52.73,8.3,7.5,2.25,9.53,3.77,11.69,9h5.93l-9,28,5,.36v8.7l5.56.33V67.43H58.35c0,3.21-.09,6.15,0,9.08.64,17.32,1.94,34.6,6.46,51.4,1.66,6.16,4.37,12.07,7,17.9a17.06,17.06,0,0,0,8.31,8.13,37.78,37.78,0,0,1,5.45,3.22c3.6,2.59,3.71,5.57.47,8.58-.7.65-1.44,1.27-2.35,2.07C85.89,169.25,88,170.56,90,172c.63.45,1.42,1.22,1.45,1.87.15,3,.07,6.1.07,9.28H61.91c-.67-5.09,1-10.48-2.26-15.35-4.8,0-9.79-.07-14.77.08a2.81,2.81,0,0,0-2.11,1.64c-.6,3.07-.94,6.19-1.27,9.31C41.36,180.15,41.47,181.49,41.47,183.15ZM61,160.42c-9.07-29.15-6.33-59-7.91-88.48H49c0,1,0,1.75,0,2.51-.53,19.91-.92,39.82-1.69,59.72-.29,7.47-1,15-4.14,22A29.6,29.6,0,0,0,42,160.42Zm-6.74-114c.16-1.67.34-3.19.45-4.71.49-6.7.9-13.4,1.44-20.09.33-4.06-1.56-7-5.44-8.17-1.77-.54-3.14-.28-3.4,1.76A33.58,33.58,0,0,0,47,21.48c.41,7,1,14,1.49,20.94.28,4.35.21,4.36,4.67,4.22A9.83,9.83,0,0,0,54.29,46.43ZM53.66,51H49.13l-.22,4c-1,.72-2.33,1.25-2.37,1.85-.21,3.5-.1,7-.1,10.47H56.57V56.09l-2.64-.7Z"/></g></g></svg>