<svg xmlns="http://www.w3.org/2000/svg" viewBox="0 0 50.6 59.46"><title>rook5</title><g id="Layer_2" data-name="Layer 2"><g id="Layer_1-2" data-name="Layer 1"><path d="M46.64.3c0,7.5.09,14.47,0,21.43C46.54,25,38.79,31.78,35,31.85c-6.32.12-12.64.13-19,0C10.78,31.75,4.16,24.77,4.15,19.5c0-5.82,0-11.64.09-17.46a7.57,7.57,0,0,1,.5-1.7h7.4c2.37,2-2,8.6,5.41,6.93L18,0H31.61C34.75,2,30,8.87,37.43,7.33L38,.3Z"/><path d="M0,59.46V50.53c7.48-1.31,15.27-2,19-10.13-1.69-2-7.1.18-4.72-5.18H36.48c2.09,5-2.22,3.58-4.93,4.82,3.92,8.07,11.24,9.36,19,10.26v9.16Z"/></g></g></svg>