<svg xmlns="http://www.w3.org/2000/svg" viewBox="0 0 81.58 180.95"><title>queen</title><g id="Layer_2" data-name="Layer 2"><g id="Layer_1-2" data-name="Layer 1"><path d="M21.64,60.26c-5.5-8.93-11.51-17.32-20.26-23.75,3.47-3.15,7.76-4.44,12.13-5.13s9-.62,13.19,2.16c2.23-6.29,4.54-12.11,9.11-16.63-5.1-5.21-5.6-10.39-1.23-14.42,3.28-3,8.65-3.89,13.19.83,3.32,3.46,2.5,9.16-1.51,12.9l9,16.79c8.76-3.92,17-1.69,25.2,3.35-6.47,4.17-10.82,10-15.34,15.7a28.39,28.39,0,0,0-3.41,5.31c-1.09,2.26-2.48,3.06-5.1,3-11.44-.18-22.89-.06-34.34-.06A4.22,4.22,0,0,1,21.64,60.26Z"/><path d="M27.17,78.15H54.26c-4.69,23.5,0,44.87,14,64.48H13.31C27.07,123.13,32.13,101.78,27.17,78.15Z"/><path d="M81.26,181H0c0-6.5-.11-12.89.06-19.28.07-2.45,2.92-5,5.4-5.4A24.71,24.71,0,0,1,9.19,156q31.49,0,63,0c7,0,9.42,2.4,9.41,9.47q0,7.41-.05,14.82A2.58,2.58,0,0,1,81.26,181Z"/><path d="M41,62.81c6.57,0,13.15.09,19.72,0,2.42-.05,3.22.85,3.09,3.16-.13,2.46,0,4.94,0,7.41,0,1.52-.7,2.22-2.27,2.22q-20.73,0-41.46,0c-1.87,0-2.65-1-2.62-2.78,0-2.3.09-4.61,0-6.91s.89-3.08,3.09-3.06C27.37,62.85,34.21,62.81,41,62.81Z"/><path d="M74.33,153.5H7.11c-.67-5.65,1.61-8.33,7-8.33q26.56,0,53.12,0C72.67,145.17,74.87,147.69,74.33,153.5Z"/></g></g></svg>