<svg xmlns="http://www.w3.org/2000/svg" viewBox="0 0 101.24 267.09"><title>3_king</title><g id="Layer_2" data-name="Layer 2"><g id="Layer_1-2" data-name="Layer 1"><path d="M81.6,202H20.12c8.87-23.55,8.49-48.15,9.59-72.91H71.37C73.32,153.43,72.48,178.35,81.6,202Z"/><path d="M15.82,219.88H85.48c-.53,1.4-1,2.56-1.42,3.74-2.63,7.27-1.29,10.92,5.59,14.59,6.11,3.26,9.19,8.37,9.88,15.39H2.24c.78-6.51,3.46-11.61,9-15.12,8.73-5.55,9.12-6.83,5.4-16.29C16.4,221.6,16.21,221,15.82,219.88Z"/><path d="M50.71,52c6.07,0,12.14-.09,18.21,0,5.7.11,8.63,2,10,6.09a6.09,6.09,0,0,1-1.25,6.71c-5.56,6.6-7.08,14.88-8,23.2-.78,7.32-.36,6-6.62,6.08-9,.06-17.93-.1-26.88.08-3.13.06-4.12-.83-4.58-4.08a194,194,0,0,0-4.18-19.65,15.46,15.46,0,0,0-2.9-5.13c-4.09-5.46-2-11.72,4.83-12.79,5-.79,10.25-.42,15.38-.54C46.75,51.93,48.73,52,50.71,52ZM39.87,86.08c-.57-9.26-2.71-16.79-7.18-23.52-.58-.88-2-1.22-3-1.81a11.74,11.74,0,0,0,0,3.41q3.2,10.7,6.66,21.31c.37,1.13,1.44,2,2.19,3Z"/><path d="M.1,267.09c0-2.81-.3-5.46.17-8,.16-.84,2.28-1.82,3.52-1.85,7.77-.16,15.55-.07,23.33-.07h74.12v9.9Z"/><path d="M94,206.54v9.59H7.83v-9.59Z"/><path d="M48,22.86c-5.13,1.1-9.15,1.67-13,2.87-2.9.92-3.91-.17-4.36-2.66a9.69,9.69,0,0,1,0-1.58c-.12-8-.13-8,7.6-6.15a44.41,44.41,0,0,0,4.66.84c1.29.17,2.6.17,4.89.3-.9-4.21-1.55-8-2.56-11.7-.81-3,0-4.49,3-4.74C49,0,49.79,0,50.58,0c6.66,0,7,.43,5.12,6.58a32.72,32.72,0,0,0-.87,3.85c-.31,1.79-.52,3.6-.91,6.42,4.25-.83,8.09-1.36,11.8-2.36s4.74-.37,4.86,3.45c0,.26,0,.53,0,.79.06,7.81.08,7.75-7.37,5.89a69.37,69.37,0,0,0-7.41-1.16,9.2,9.2,0,0,0-2,.31c.86,3.87,1.51,7.59,2.56,11.2,1.11,3.82.41,5.07-3.6,5.19-1.18,0-2.37,0-3.56,0-4.29-.09-5-1.32-3.81-5.29C46.4,31.4,46.94,27.76,48,22.86Z"/><path d="M82.08,119.48v6.29H19.72v-6.29Z"/><path d="M77.67,113.62c.88,3-1.64,1.7-2.53,1.71-10.14.11-20.28.08-30.43.08H23.88v-7.13h8c12.12,0,24.24,0,36.36,0a40.94,40.94,0,0,1,4.64.53Z"/><path d="M29.25,104.56V98.15H72.31v6.41Z"/><path d="M41.08,48.5V42.32H60.63V48.5Z"/><path d="M77.67,113.62l-4.75-4.78,5.56-.82Z"/></g></g></svg>