<svg xmlns="http://www.w3.org/2000/svg" viewBox="0 0 80.68 143.44"><title>3_rook</title><g id="Layer_2" data-name="Layer 2"><g id="Layer_1-2" data-name="Layer 1"><path d="M67.48,86.48h-55c5.86-14.2,5.62-29.19,6.86-44.17H60.9C62,57.05,62.18,71.87,67.48,86.48Z"/><path d="M11.74,101.78h56c-.53,1.83-1,3.52-1.5,5.22-1.45,5.23-.63,7.44,4.12,10.09,5.62,3.13,9,7.48,8.7,14.44-1.38.08-2.54.2-3.7.2q-34,0-68,0c-5.77,0-7-1.51-4.78-6.73a17.22,17.22,0,0,1,5.56-6.83c6.71-4.8,7.15-5.5,4.52-13.26C12.25,103.94,12,102.93,11.74,101.78Z"/><path d="M6.46.39C19.09-.59,19-.58,21.08,11c.51,2.87-.07,6.57,4.91,6.53,6.57,0,7.22-.55,6.67-7.2-.23-2.76-.35-5.52-.5-8.29A14.2,14.2,0,0,1,32.28.48H47.14c0,4.27.16,8.46-.05,12.62-.16,3.08,1,4.27,4,4.35,6.31.16,6.39.21,7.63-6.08.71-3.61,1.38-7.23,2.1-11H73.38C71.94,8.74,70.73,16.93,69,25c-.67,3.18-2.74,5.3-6.77,5.24-15-.21-30.06-.17-45.09,0-3.56,0-5.6-1.55-6.22-4.74C9.33,17.22,8,8.91,6.46.39ZM13,4.6l-1.2.09c-.35,1-1.11,2.15-1,3.12A103.42,103.42,0,0,0,13.42,21c.52,1.82,2.33,3.37,3.81,4.77.43.41,1.77-.15,2.7-.26a14.78,14.78,0,0,0-.66-2.36c-.85-1.83-2.14-3.52-2.63-5.43-.85-3.3-1.14-6.74-1.88-10.08A11.69,11.69,0,0,0,13,4.6Z"/><path d="M80.68,134.84v8.6H.59a7,7,0,0,1-.44-1.49c-.43-7.11-.43-7.11,6.74-7.11H80.68Z"/><path d="M72.68,90.53c.28.33.43.42.44.53.88,7.47.78,7.58-6.6,7.59H7V90.53Z"/><path d="M12.42,39.28v-5.5h54.5v5.5Z"/></g></g></svg>