<svg xmlns="http://www.w3.org/2000/svg" viewBox="0 0 91.54 166.84"><title>4_bishop</title><g id="Layer_2" data-name="Layer 2"><g id="Layer_1-2" data-name="Layer 1"><path d="M54.61,52.62h8.76v6.19h5.57v8.84H56.39c0,1.16-.05,2,0,2.81,1,13.81,1.72,27.66,5.35,41.11,2,7.38,4.63,14.54,10.26,20a63.25,63.25,0,0,0,7.53,5.72c1,.72,2.2,1.19,3.27,1.82,7.19,4.19,7.45,6.9.87,12.44a48.74,48.74,0,0,1,5.63,3.78,6.39,6.39,0,0,1,2,3.64,64.24,64.24,0,0,1,.09,7.85H61.71c0-1,0-2,0-2.91,0-2.12.08-4.24,0-6.35-.24-4.92-1.48-6.08-6.31-6.08-3.36,0-6.73.1-10.09,0-1.69-.06-2.56.61-2.81,2.16-.41,2.53-.84,5.07-1.08,7.62-.17,1.79,0,3.6,0,5.58H0c0-3.16-.07-6.28.06-9.4,0-.57.78-1.24,1.35-1.64,2-1.38,4-2.66,6.32-4.21-.92-.81-1.7-1.44-2.42-2.13-3.09-2.95-3-5.87.38-8.42a22.6,22.6,0,0,1,4.17-2.56c8.58-3.92,13.76-10.81,17.2-19.3s5.06-17.53,6.11-26.61C34,85.2,34.47,77.8,35.07,70.42c.06-.74,0-1.49,0-2.61H22.46V59l5.43-.27.34-6h9.27C36,51.2,35,50.14,34,49.07c-5.7-6-6.58-13.08-3.1-20.27C34.07,22.19,38.17,16,42.1,9.27c-2.14-3.78-2.17-6.18.31-8.14a5.46,5.46,0,0,1,6.92.21C51.69,3.55,51.6,6,49,9.88c2.47,3.48,5.23,6.82,7.38,10.52a64.79,64.79,0,0,1,5.29,11.46c2.19,6.38.49,12.13-4,17C56.6,50,55.41,51,54.3,52Zm-13.5,91.56H61.35c-9-23.44-8.12-47.86-9.19-71.91H48c0,1-.1,1.72-.12,2.48-.25,12.49-.3,25-.82,37.48-.4,9.4-1.06,18.83-4.93,27.66A24.55,24.55,0,0,0,41.11,144.18ZM54.32,33.42c-.42-5.19-1.81-9.06-4.73-12.15-.91-1-2.89-1.94-3.84-1.56S44,22.16,44,23.48A16.27,16.27,0,0,0,48.5,34.72c1,1,2.89,2.13,3.79,1.77C53.41,36,53.92,34.08,54.32,33.42ZM44.48,67.55H54.63v-8.3l-2.57-.71L51.52,56h-4.6c.75,2.28-.55,3-2.44,3.18Z"/></g></g></svg>