<svg xmlns="http://www.w3.org/2000/svg" viewBox="0 0 50.62 65.02"><title>bishop5</title><g id="Layer_2" data-name="Layer 2"><g id="Layer_1-2" data-name="Layer 1"><path d="M25.37,0c4.39,3.46,9.31,6.51,13.11,10.59A32.69,32.69,0,0,1,46,23c2.08,7.07-4.31,14.38-11.78,14.59-5.49.15-11,.08-16.47,0C7.49,37.53,1.22,28.34,5.69,19.05c1.93-4,5.51-7.38,8.82-10.54S21.77,2.78,25.37,0ZM23.2,22.9a26.73,26.73,0,0,0,.1,5c.16.95,1.32,1.72,2,2.58.56-.81,1.51-1.57,1.61-2.43A55.15,55.15,0,0,0,27,21.79,10.29,10.29,0,0,0,29,21.21c1.1-.66,2.15-1.41,3.21-2.12-1-.58-1.91-1.19-2.88-1.74-.66-.38-1.55-.53-2-1.07a33.69,33.69,0,0,1-2.34-3.5L22.46,16.5,18,19Z"/><path d="M0,65V56c12.76-2.16,16.79-4.51,18.66-10.93-1.54-1.25-6.71,1-4.46-4.4H36.5c1.78,4.91-2.07,3.67-5,4.15,3.5,9.08,11.36,9.83,19.07,11V65Z"/></g></g></svg>