<svg xmlns="http://www.w3.org/2000/svg" viewBox="0 0 50.54 63.76"><title>knight5</title><g id="Layer_2" data-name="Layer 2"><g id="Layer_1-2" data-name="Layer 1"><path d="M7,.15c9.26,0,16.75-.46,24.13.25,2.65.25,4.9,3.57,7.57,5.07,8.34,4.7,7.41,12.56,6.86,20.11-.33,4.64-8.6,11.3-13.25,11.29q-8.73,0-17.46-.12c-.3,0-.59-.27-.91-.42C11.53,28.88,19.83,25.93,21.1,20l-1.18-1c-1.72,1.88-3.79,3.56-5.07,5.7-2.43,4-6.16,3.39-9.7,3.07-2.35-.21-3.67-6-2.08-9a76.78,76.78,0,0,1,4.21-6.77C9.67,8.57,12.29,5.18,7,.15Z"/><path d="M50.54,63.76H0V56.13c5.65-2.5,10.93-4.63,16-7.21,1.39-.71,2.09-2.75,3.17-4.26-1.83-1.91-7.18.45-5-5H36.45c1.75,4.9-2.2,3.63-5.15,4.29,4,8.54,11.51,9.57,19.24,10.85Z"/></g></g></svg>