<svg xmlns="http://www.w3.org/2000/svg" viewBox="0 0 81.46 143.76"><title>pown</title><g id="Layer_2" data-name="Layer 2"><g id="Layer_1-2" data-name="Layer 1"><path d="M.07,143.76c0-6.08-.2-12.07.07-18,.19-4.17,3.12-6.66,7.34-6.76,4.52-.1,9,0,13.56,0H72.86c2.57,0,5.23,0,6.87,2.44a8.14,8.14,0,0,1,1.63,3.92c.17,6.08.08,12.16.08,18.46Z"/><path d="M68.48,105.62H13.26c14.06-19.41,18.54-40.79,14-64.46,9.22,5.19,18,5.29,27,0C50,64.51,54.06,86,68.48,105.62Z"/><path d="M40.84,42.75c-11.67.13-21.16-9.42-21.43-21.18S29.43.27,40.22,0c11.89-.29,21.49,9.72,22,20.32C62.71,32.7,52.48,43,40.84,42.75Z"/><path d="M7,116.41c-.51-5.37,1.9-8.34,6.57-8.35q27,0,54,0c2.48,0,4.91.28,6,2.83A35.51,35.51,0,0,1,75,116.41Z"/></g></g></svg>