<svg xmlns="http://www.w3.org/2000/svg" viewBox="0 0 101.22 224.16"><title>3_queen</title><g id="Layer_2" data-name="Layer 2"><g id="Layer_1-2" data-name="Layer 1"><path d="M81.75,159.16H19.68C26.21,146.07,27.16,132,28.4,118c.71-8,.7-16.08,1.25-24.11.07-1.1,1.48-3,2.3-3,13.05-.19,26.11-.13,39.69-.13C72.39,114,72.88,137,81.75,159.16Z"/><path d="M2.11,210.72a19.25,19.25,0,0,1,9.27-15.18c7.83-5,8.67-7.56,5.29-16.29-.23-.6-.42-1.22-.72-2.14H85.38c-.67,2-1.44,3.93-2,5.94-1.44,5.53-.11,8.86,4.95,11.48C95,197.94,99,203,99.6,210.72Z"/><path d="M74.65,23.95c5.48,2.29,5.94,3.86,2.51,8-4.86,5.94-6.9,13-7.51,20.43-.23,2.82-1,3.86-4,3.81-10.55-.17-21.1-.08-31.64-.1a10.29,10.29,0,0,1-1.41-.23c-.82-4-1.15-8.3-2.61-12.14a79.16,79.16,0,0,0-6.85-13.12c-1.65-2.67-1-4.42,3.46-6.5,5.79,5.32,7.66,5.21,13.55,0,.82-.72,3.63-.5,4.46.34,4.61,4.68,7.45,4.89,12.23,0,1.73-1.76,3.2-2,4.91-.27C66.77,29.42,69.64,29.4,74.65,23.95Zm-33,25.25c-2.92-6.18-4.87-10.44-7-14.61-.26-.52-1.52-.52-2.31-.77-.14.93-.61,2-.35,2.78q1.9,5.76,4.19,11.39a3.58,3.58,0,0,0,2.15,2C39.36,50.19,40.54,49.51,41.65,49.2Z"/><path d="M0,224.16v-9.61H101.22v9.61Z"/><path d="M94,163.57v9.63H8v-9.63Z"/><path d="M82,87.22H19.29V81.29H82Z"/><path d="M23.81,70.16H78v6.59H23.81Z"/><path d="M54.44,15.66c4.35,1,8.71,1.33,11.5,4.82l-.47,1C64.27,21,63.09,20.09,61.85,20c-3.18-.2-6.45-1-8.48,3.09-1.21,2.42-3.78,2.08-5.58-.07-3.71-4.43-7.91-4.45-11.43-.18a5.48,5.48,0,0,1-3.62,1.57c2.41-6.46,8.38-7.18,13.82-8.77-1.15-2.27-3.22-4.61-3.28-7A10.77,10.77,0,0,1,46.4,1.58C49.16-1.14,54.26-.13,57.07,3S59.06,9.59,54.44,15.66Z"/><path d="M29.26,66V59.9H72.07V66Z"/></g></g></svg>