<svg xmlns="http://www.w3.org/2000/svg" viewBox="0 0 88.99 202.83"><title>5_king</title><g id="Layer_2" data-name="Layer 2"><g id="Layer_1-2" data-name="Layer 1"><path d="M7.46,188c-6.4-6-6.34-8.54,1.27-12.25,11-5.36,15.19-15.23,17.62-26a222.66,222.66,0,0,0,5-31.28c1-12.84.81-25.79,1.21-38.69.07-2.17-.55-3.05-2.84-2.87-2.5.19-5,0-7.76,0V65.8h5.2v-9l4.95-.31C29.41,48.21,26.86,40,24.12,31.87c-.63-1.87-.13-3,.84-4.57,2.78-4.42,6.5-6.37,11.71-5.48a23.89,23.89,0,0,0,3.79,0V15.3H33V7.84H40.5V0h7.76V7.58h7.68v7.56H48.43v6.74c2.75,0,5.52.15,8.27-.05,1.91-.14,3,.69,4.31,1.92,3.76,3.51,4.72,7.08,2.63,12.13-2.74,6.61-4.53,13.62-6.8,20.67l4.81.23v8.79H67V77H56.7c-.19,2.11-.49,4-.51,6-.23,18.18.56,36.32,3.51,54.28,1.58,9.62,3.79,19.1,8.68,27.71a22.85,22.85,0,0,0,10.39,9.9,27.57,27.57,0,0,1,4.55,2.77c3.28,2.38,3.5,5,.73,8-.69.75-1.53,1.37-2.61,2.32,2,1.35,4,2.6,5.93,4a3.5,3.5,0,0,1,1.52,2c.17,2.87.07,5.76.07,8.83H0c0-3-.08-6,.06-8.92a3,3,0,0,1,1.3-1.85C3.34,190.66,5.4,189.39,7.46,188Z"/></g></g></svg>