<svg xmlns="http://www.w3.org/2000/svg" viewBox="0 0 89.03 178.13"><title>5_queen</title><g id="Layer_2" data-name="Layer 2"><g id="Layer_1-2" data-name="Layer 1"><path d="M0,178.13c0-3-.12-5.76.07-8.45a3.77,3.77,0,0,1,1.46-2.37c1.86-1.39,3.88-2.57,5.92-3.89A48.33,48.33,0,0,1,4,159.61c-1.58-2.14-1.37-4.26.8-5.89a31.77,31.77,0,0,1,5.4-3.5c5.67-2.67,9.16-7.25,11.76-12.7,4.48-9.41,6.45-19.5,7.94-29.71a276.81,276.81,0,0,0,2.58-42.08H22V54.4L27.33,54V45.49l4.87-.29L23.53,18.13a5.5,5.5,0,0,1,1.24-.21c2.74.28,4.38-.54,6.27-3,2.13-2.82,6-4.32,9.2-6.46C38.75,5.25,39,2.87,41.38,1a5.5,5.5,0,0,1,6.54.19C50.09,3,50.29,5.72,48.56,9c2.26,1,4.75,1.67,6.72,3.08s3.38,3.53,5.5,5.85h4.86L56.91,45.21l4.83.23v8.63l5.46.3V65.51H56.82c0,3.45-.12,6.51,0,9.57.81,18,2.1,35.92,7.36,53.26A86.55,86.55,0,0,0,70,142a17.22,17.22,0,0,0,8.4,8,31.51,31.51,0,0,1,4.8,2.88c3.64,2.55,3.77,5.49.45,8.53-.62.57-1.26,1.12-2.16,1.91,2.05,1.36,4.1,2.57,5.94,4a4.1,4.1,0,0,1,1.45,2.6c.19,2.68.07,5.39.07,8.26Z"/></g></g></svg>